<svg version="1.1" id="Layer_1" xmlns="http://www.w3.org/2000/svg" xmlns:xlink="http://www.w3.org/1999/xlink" x="0px" y="0px" width="100%" viewBox="0 0 512 512" enable-background="new 0 0 512 512" xml:space="preserve">
<path fill="#5EAC24" opacity="1.000000" stroke="none" d="
M225.000000,1.000003 
	C246.020889,1.000000 267.041779,1.000000 288.427887,1.414856 
	C289.634918,2.214828 290.441895,2.799267 291.324097,2.953624 
	C298.596802,4.226108 305.951111,5.110518 313.153870,6.690593 
	C340.173035,12.617811 365.507660,22.795616 389.262115,37.025696 
	C414.631836,52.223400 436.554047,71.508064 455.349823,94.109314 
	C472.126526,114.282684 485.510986,136.714905 495.117523,161.298126 
	C502.856903,181.103287 508.649384,201.366852 511.082886,222.540787 
	C511.184204,223.422318 512.337036,224.183014 513.000000,225.000000 
	C513.000000,246.020889 513.000000,267.041779 512.584778,288.428833 
	C511.784698,289.636597 511.200592,290.443359 511.046448,291.325256 
	C509.776184,298.592773 508.898743,305.943085 507.315308,313.139160 
	C501.266663,340.628204 490.873901,366.377136 476.237091,390.463715 
	C461.143890,415.301392 442.192413,436.837769 419.933105,455.288940 
	C401.645874,470.447601 381.530304,482.936035 359.512421,492.249847 
	C337.626923,501.507690 315.144165,508.362701 291.472046,511.083008 
	C290.586273,511.184814 289.821259,512.337219 289.000000,513.000000 
	C267.979095,513.000000 246.958206,513.000000 225.574402,512.585571 
	C224.369949,511.785767 223.563293,511.200623 222.681351,511.046509 
	C215.412567,509.776642 208.061264,508.898712 200.863464,507.317200 
	C173.352859,501.272614 147.615570,490.795532 123.495041,476.206177 
	C98.626457,461.164307 77.140419,442.147797 58.678783,419.923920 
	C43.616016,401.791626 31.215879,381.803802 21.932962,359.964447 
	C12.573407,337.944763 5.655385,315.309967 2.916736,291.472534 
	C2.814959,290.586639 1.662707,289.821442 0.999997,289.000000 
	C1.000000,267.645782 1.000000,246.291550 1.410403,224.577103 
	C2.590762,220.107651 3.305478,215.987183 4.139568,211.891006 
	C9.896050,183.621094 18.942204,156.589752 33.192764,131.323532 
	C48.958290,103.371307 69.342735,79.297447 93.855392,58.864353 
	C114.258919,41.856518 136.942200,28.290237 161.811630,18.627930 
	C181.431976,11.005014 201.546265,5.294117 222.532928,2.916270 
	C223.416321,2.816180 224.180359,1.662732 225.000000,1.000003 
M373.455048,124.075150 
	C349.793121,124.077263 326.130615,123.978622 302.469482,124.116814 
	C286.632019,124.209312 274.972961,135.297775 274.761810,150.890808 
	C274.461700,173.048676 274.455048,195.216965 274.769440,217.374481 
	C274.984161,232.509842 286.571686,243.808868 301.659454,243.908554 
	C327.819733,244.081375 353.982971,244.095078 380.142944,243.899551 
	C395.087463,243.787857 406.809143,232.065842 406.938934,217.177597 
	C407.132141,195.017136 407.107941,172.852768 406.935242,150.691925 
	C406.842010,138.733032 398.632111,128.096741 387.307495,125.277924 
	C383.173401,124.248886 378.735474,124.440445 373.455048,124.075150 
M235.824142,376.174713 
	C236.996704,371.385620 239.098419,366.612640 239.181671,361.804688 
	C239.550659,340.494843 239.487488,319.173645 239.292145,297.859161 
	C239.140198,281.279388 227.683044,270.099701 211.105576,270.054871 
	C185.792709,269.986389 160.479370,269.983917 135.166534,270.057404 
	C118.524887,270.105743 107.048462,281.728699 107.011139,298.473297 
	C106.964378,319.456360 106.964546,340.439728 107.010956,361.422791 
	C107.047882,378.119202 118.502296,389.807312 135.160034,389.889374 
	C160.472458,390.014008 185.786011,389.954529 211.098969,389.905670 
	C221.503387,389.885620 229.769958,385.729065 235.824142,376.174713 
M173.500015,124.070335 
	C160.835602,124.070816 148.170700,124.000313 135.506912,124.089188 
	C118.450409,124.208878 107.036247,135.701691 107.004669,152.737564 
	C106.966049,173.567032 106.969246,194.396667 107.003639,215.226151 
	C107.032204,232.524872 118.485100,243.927200 135.897614,243.956772 
	C160.726364,243.998932 185.555267,243.995834 210.384018,243.958664 
	C227.921448,243.932419 239.226791,232.824585 239.324646,215.337784 
	C239.441193,194.508896 239.437714,173.678406 239.326599,152.849457 
	C239.233139,135.325882 227.964447,124.161026 210.493423,124.082451 
	C198.495850,124.028488 186.497849,124.070969 173.500015,124.070335 
M396.574707,275.863342 
	C391.241699,271.691010 385.150238,269.997742 378.427368,270.011688 
	C353.277191,270.063873 328.126770,269.983490 302.976654,270.048981 
	C286.155914,270.092804 274.794250,281.360413 274.683380,298.271698 
	C274.544739,319.423645 274.537231,340.577972 274.685699,361.729797 
	C274.803802,378.561066 286.226166,389.848663 303.063354,389.905457 
	C328.213318,389.990326 353.364044,389.996796 378.513947,389.904663 
	C395.524780,389.842346 406.953156,378.283051 406.993164,361.250916 
	C407.042023,340.431305 406.939148,319.611145 407.035309,298.791870 
	C407.077057,289.756226 404.052948,282.210876 396.574707,275.863342 
z" data-index="0" style="opacity: 1;"></path>

<path fill="#000000" opacity="1.000000" stroke="none" d="
M0.999997,289.468658 
	C1.662707,289.821442 2.814959,290.586639 2.916736,291.472534 
	C5.655385,315.309967 12.573407,337.944763 21.932962,359.964447 
	C31.215879,381.803802 43.616016,401.791626 58.678783,419.923920 
	C77.140419,442.147797 98.626457,461.164307 123.495041,476.206177 
	C147.615570,490.795532 173.352859,501.272614 200.863464,507.317200 
	C208.061264,508.898712 215.412567,509.776642 222.681351,511.046509 
	C223.563293,511.200623 224.369949,511.785767 225.105743,512.585571 
	C150.406296,513.000000 75.812599,513.000000 1.000000,513.000000 
	C1.000000,438.645905 1.000000,364.291626 0.999997,289.468658 
z" data-index="2" style="opacity: 1; visibility: hidden;"></path>

<path fill="#000000" opacity="1.000000" stroke="none" d="
M224.531342,1.000003 
	C224.180359,1.662732 223.416321,2.816180 222.532928,2.916270 
	C201.546265,5.294117 181.431976,11.005014 161.811630,18.627930 
	C136.942200,28.290237 114.258919,41.856518 93.855392,58.864353 
	C69.342735,79.297447 48.958290,103.371307 33.192764,131.323532 
	C18.942204,156.589752 9.896050,183.621094 4.139568,211.891006 
	C3.305478,215.987183 2.590762,220.107651 1.410403,224.108444 
	C1.000000,149.739456 1.000000,75.478920 1.000000,1.000000 
	C75.354088,1.000000 149.708389,1.000000 224.531342,1.000003 
z" data-index="4" style="opacity: 1; visibility: hidden;"></path>
<path fill="#FFFFFE" opacity="1.000000" stroke="none" d="
M373.945618,124.075150 
	C378.735474,124.440445 383.173401,124.248886 387.307495,125.277924 
	C398.632111,128.096741 406.842010,138.733032 406.935242,150.691925 
	C407.107941,172.852768 407.132141,195.017136 406.938934,217.177597 
	C406.809143,232.065842 395.087463,243.787857 380.142944,243.899551 
	C353.982971,244.095078 327.819733,244.081375 301.659454,243.908554 
	C286.571686,243.808868 274.984161,232.509842 274.769440,217.374481 
	C274.455048,195.216965 274.461700,173.048676 274.761810,150.890808 
	C274.972961,135.297775 286.632019,124.209312 302.469482,124.116814 
	C326.130615,123.978622 349.793121,124.077263 373.945618,124.075150 
z" data-index="5" style="opacity: 1;"></path>
<path fill="#FFFFFE" opacity="1.000000" stroke="none" d="
M235.620605,376.486450 
	C229.769958,385.729065 221.503387,389.885620 211.098969,389.905670 
	C185.786011,389.954529 160.472458,390.014008 135.160034,389.889374 
	C118.502296,389.807312 107.047882,378.119202 107.010956,361.422791 
	C106.964546,340.439728 106.964378,319.456360 107.011139,298.473297 
	C107.048462,281.728699 118.524887,270.105743 135.166534,270.057404 
	C160.479370,269.983917 185.792709,269.986389 211.105576,270.054871 
	C227.683044,270.099701 239.140198,281.279388 239.292145,297.859161 
	C239.487488,319.173645 239.550659,340.494843 239.181671,361.804688 
	C239.098419,366.612640 236.996704,371.385620 235.620605,376.486450 
M140.006439,371.998779 
	C163.285126,371.998779 186.563828,371.998779 209.842514,371.998779 
	C209.839645,371.791199 209.836761,371.583618 209.833878,371.376038 
	C185.300217,371.376038 160.766541,371.376038 136.232864,371.376038 
	C136.234161,371.583466 136.235458,371.790894 136.236755,371.998322 
	C137.219284,371.998322 138.201828,371.998322 140.006439,371.998779 
z" data-index="6" style="opacity: 1;"></path>
<path fill="#FDFEFD" opacity="1.000000" stroke="none" d="
M174.000031,124.070335 
	C186.497849,124.070969 198.495850,124.028488 210.493423,124.082451 
	C227.964447,124.161026 239.233139,135.325882 239.326599,152.849457 
	C239.437714,173.678406 239.441193,194.508896 239.324646,215.337784 
	C239.226791,232.824585 227.921448,243.932419 210.384018,243.958664 
	C185.555267,243.995834 160.726364,243.998932 135.897614,243.956772 
	C118.485100,243.927200 107.032204,232.524872 107.003639,215.226151 
	C106.969246,194.396667 106.966049,173.567032 107.004669,152.737564 
	C107.036247,135.701691 118.450409,124.208878 135.506912,124.089188 
	C148.170700,124.000313 160.835602,124.070816 174.000031,124.070335 
M157.500000,142.967041 
	C150.172913,142.967545 142.845490,142.925751 135.518814,142.980972 
	C128.766922,143.031860 125.872818,145.917496 125.857048,152.779037 
	C125.809212,173.594452 125.808823,194.410126 125.856812,215.225540 
	C125.873138,222.307022 128.732346,225.094833 135.950729,225.105591 
	C160.762802,225.142593 185.574966,225.140900 210.387039,225.106018 
	C217.756744,225.095657 220.688171,222.213882 220.711441,214.793610 
	C220.775711,194.311340 220.774307,173.828598 220.712814,153.346298 
	C220.689896,145.717926 217.760284,142.978790 209.955994,142.971863 
	C192.804016,142.956650 175.651993,142.967072 157.500000,142.967041 
z" data-index="7"></path>
<path fill="#FDFEFC" opacity="1.000000" stroke="none" d="
M396.863403,276.079956 
	C404.052948,282.210876 407.077057,289.756226 407.035309,298.791870 
	C406.939148,319.611145 407.042023,340.431305 406.993164,361.250916 
	C406.953156,378.283051 395.524780,389.842346 378.513947,389.904663 
	C353.364044,389.996796 328.213318,389.990326 303.063354,389.905457 
	C286.226166,389.848663 274.803802,378.561066 274.685699,361.729797 
	C274.537231,340.577972 274.544739,319.423645 274.683380,298.271698 
	C274.794250,281.360413 286.155914,270.092804 302.976654,270.048981 
	C328.126770,269.983490 353.277191,270.063873 378.427368,270.011688 
	C385.150238,269.997742 391.241699,271.691010 396.863403,276.079956 
M293.265442,305.570709 
	C293.265778,323.889801 293.229095,342.209045 293.283997,360.527954 
	C293.307037,368.217468 296.205536,371.052551 303.914948,371.060883 
	C328.395935,371.087341 352.876953,371.084869 377.357971,371.062866 
	C385.481354,371.055573 388.139069,368.414948 388.149689,360.334473 
	C388.176147,340.183472 388.172333,320.032379 388.151947,299.881348 
	C388.143402,291.420807 385.612854,288.892914 377.147888,288.886047 
	C354.498810,288.867615 331.849701,288.879608 309.200623,288.879608 
	C294.207672,288.879608 293.265594,289.808929 293.265442,305.570709 
z" data-index="8" style="opacity: 1;"></path>
<path fill="#F4F9F0" opacity="1.000000" stroke="none" d="
M139.595398,371.998535 
	C138.201828,371.998322 137.219284,371.998322 136.236755,371.998322 
	C136.235458,371.790894 136.234161,371.583466 136.232864,371.376038 
	C160.766541,371.376038 185.300217,371.376038 209.833878,371.376038 
	C209.836761,371.583618 209.839645,371.791199 209.842514,371.998779 
	C186.563828,371.998779 163.285126,371.998779 139.595398,371.998535 
z" data-index="9"></path>
<path fill="#5FAC25" opacity="1.000000" stroke="none" d="
M158.000000,142.967041 
	C175.651993,142.967072 192.804016,142.956650 209.955994,142.971863 
	C217.760284,142.978790 220.689896,145.717926 220.712814,153.346298 
	C220.774307,173.828598 220.775711,194.311340 220.711441,214.793610 
	C220.688171,222.213882 217.756744,225.095657 210.387039,225.106018 
	C185.574966,225.140900 160.762802,225.142593 135.950729,225.105591 
	C128.732346,225.094833 125.873138,222.307022 125.856812,215.225540 
	C125.808823,194.410126 125.809212,173.594452 125.857048,152.779037 
	C125.872818,145.917496 128.766922,143.031860 135.518814,142.980972 
	C142.845490,142.925751 150.172913,142.967545 158.000000,142.967041 
z" data-index="10"></path>
<path fill="#5FAC25" opacity="1.000000" stroke="none" d="
M293.265442,305.084412 
	C293.265594,289.808929 294.207672,288.879608 309.200623,288.879608 
	C331.849701,288.879608 354.498810,288.867615 377.147888,288.886047 
	C385.612854,288.892914 388.143402,291.420807 388.151947,299.881348 
	C388.172333,320.032379 388.176147,340.183472 388.149689,360.334473 
	C388.139069,368.414948 385.481354,371.055573 377.357971,371.062866 
	C352.876953,371.084869 328.395935,371.087341 303.914948,371.060883 
	C296.205536,371.052551 293.307037,368.217468 293.283997,360.527954 
	C293.229095,342.209045 293.265778,323.889801 293.265442,305.084412 
z" data-index="11" style="opacity: 1;"></path>
</svg>