<?xml version="1.0" encoding="UTF-8" standalone="no"?>
<svg
   height="484.99997pt"
   viewBox="0 0 484.99997 484.99997"
   width="484.99997pt"
   version="1.1"
   id="svg9"
   sodipodi:docname="icon.svg"
   inkscape:version="1.3 (0e150ed6c4, 2023-07-21)"
   inkscape:export-filename="icon.svg"
   inkscape:export-xdpi="96"
   inkscape:export-ydpi="96"
   xmlns:inkscape="http://www.inkscape.org/namespaces/inkscape"
   xmlns:sodipodi="http://sodipodi.sourceforge.net/DTD/sodipodi-0.dtd"
   xmlns="http://www.w3.org/2000/svg"
   xmlns:svg="http://www.w3.org/2000/svg">
  <defs
     id="defs9">
    <linearGradient
       id="swatch1"
       inkscape:swatch="solid">
      <stop
         style="stop-color:#000000;stop-opacity:1;"
         offset="0"
         id="stop1" />
    </linearGradient>
    <linearGradient
       id="SVGID_1_"
       gradientUnits="userSpaceOnUse"
       x1="402.52441"
       y1="-220.87061"
       x2="400.64789"
       y2="-97.502296"
       gradientTransform="matrix(1,0,0,-1,-300.5195,-92.5547)">
      <stop
         offset="0"
         style="stop-color:#589632"
         id="stop1-3" />
      <stop
         offset="1"
         style="stop-color:#93B023"
         id="stop2" />
    </linearGradient>
    <linearGradient
       id="SVGID_2_"
       gradientUnits="userSpaceOnUse"
       x1="365.46191"
       y1="-221.14549"
       x2="363.59229"
       y2="-98.226997"
       gradientTransform="matrix(0.75,0,0,-0.75,-130.88962,664.68997)">
      <stop
         offset="0"
         style="stop-color:#589632"
         id="stop3" />
      <stop
         offset="1"
         style="stop-color:#93B023"
         id="stop4" />
    </linearGradient>
  </defs>
  <sodipodi:namedview
     id="namedview9"
     pagecolor="#f1f7d4"
     bordercolor="#000000"
     borderopacity="0.25"
     inkscape:showpageshadow="2"
     inkscape:pageopacity="0.0"
     inkscape:pagecheckerboard="0"
     inkscape:deskcolor="#d1d1d1"
     inkscape:document-units="pt"
     inkscape:zoom="0.25000001"
     inkscape:cx="135.99999"
     inkscape:cy="749.99997"
     inkscape:window-width="1920"
     inkscape:window-height="1094"
     inkscape:window-x="-11"
     inkscape:window-y="-11"
     inkscape:window-maximized="1"
     inkscape:current-layer="svg9"
     showgrid="false"
     inkscape:export-bgcolor="#f1f7d400" />
  <g
     id="g9"
     style="display:inline"
     transform="matrix(0.82268369,0,0,0.82268369,2.4653828e-6,2.4653828e-6)">
    <path
       d="M 43.780421,6.9779471 H 209.39155 c 20.32401,0 36.80246,16.4784519 36.80246,36.8024739 V 209.39155 c 0,20.32401 -16.47845,36.80246 -36.80246,36.80246 H 43.780421 c -20.324022,0 -36.8024739,-16.47845 -36.8024739,-36.80246 V 43.780421 c 0,-20.324022 16.4784519,-36.8024739 36.8024739,-36.8024739 z m 0,0"
       fill="#bbd926"
       id="path2"
       style="fill:#9ad300;fill-opacity:1;stroke:#000000;stroke-width:0;stroke-dasharray:none;stroke-opacity:1"
       inkscape:label="path2" />
    <path
       d="m 380.1424,343.33992 h 165.61113 c 20.324,0 36.80247,16.47845 36.80247,36.80248 v 165.61113 c 0,20.32401 -16.47847,36.80247 -36.80247,36.80247 H 380.1424 c -20.32405,0 -36.80248,-16.47846 -36.80248,-36.80247 V 380.1424 c 0,-20.32403 16.47843,-36.80248 36.80248,-36.80248 z m 0,0"
       fill="#d6e87d"
       id="path3"
       style="fill:#cee51a;fill-opacity:1;stroke:#000000;stroke-width:0;stroke-dasharray:none;stroke-dashoffset:68.0316;stroke-opacity:1" />
    <path
       d="m 380.1424,6.9779471 h 165.61113 c 20.32401,0 36.80247,16.4784499 36.80247,36.8024799 V 209.39156 c 0,20.32401 -16.47846,36.80247 -36.80247,36.80247 H 380.1424 c -20.32403,0 -36.80248,-16.47846 -36.80248,-36.80247 V 43.780427 c 0,-20.32403 16.47845,-36.8024799 36.80248,-36.8024799 z m 0,0"
       fill="#c9e052"
       id="path1"
       style="fill:#a5d700;fill-opacity:1;stroke:#000000;stroke-width:0;stroke-dasharray:none;stroke-dashoffset:0;stroke-opacity:1" />
    <path
       d="M 43.780427,343.33993 H 209.39155 c 20.32401,0 36.80247,16.47843 36.80247,36.80248 v 165.61112 c 0,20.324 -16.47846,36.80247 -36.80247,36.80247 H 43.780427 c -20.32402,0 -36.8024799,-16.47847 -36.8024799,-36.80247 V 380.14241 c 0,-20.32405 16.4784599,-36.80248 36.8024799,-36.80248 z m 0,0"
       fill="#e3f0a8"
       id="path4"
       style="display:inline;fill:#a8e000;fill-opacity:1;stroke:#000000;stroke-width:0;stroke-dasharray:none;stroke-opacity:1" />
  </g>
  <g
     id="g1"
     transform="matrix(4.5613871,0,0,4.5613871,-407.26676,-3326.3857)"
     style="display:inline;opacity:0.3;mix-blend-mode:normal"
     inkscape:label="g1">
    <polygon
       fill="#ee7913"
       points="68.613,88.548 68.613,69.625 86.891,69.625 71.697,54.625 52.613,54.625 52.613,72.746 "
       id="polygon1"
       transform="matrix(0.75,0,0,0.75,94.5,734.106)"
       style="display:inline" />
    <polygon
       fill="url(#SVGID_1_)"
       points="126.613,126.625 126.613,109.057 94.488,77.625 76.613,77.625 76.613,96.033 107.143,126.625 "
       id="polygon2"
       style="display:inline;fill:url(#SVGID_1_)"
       transform="matrix(0.75,0,0,0.75,94.5,734.106)" />
    <polygon
       fill="#f0e64a"
       points="68.613,69.625 68.613,88.548 76.613,96.033 76.613,77.625 94.488,77.625 86.891,69.625 "
       id="polygon3"
       transform="matrix(0.75,0,0,0.75,94.5,734.106)"
       style="display:inline" />
    <path
       fill="url(#SVGID_2_)"
       d="m 146.19225,810.27 c -0.87375,0.1815 -1.32675,0.11775 -3.51375,0.11775 -15.6495,0 -28.959,-12.8685 -28.959,-29.5545 0,-16.686 13.16325,-29.27025 28.959,-29.27025 15.79575,0 28.37475,12.585 28.37475,29.27025 0,2.71425 -0.33825,5.32425 -0.963,7.7985 L 184.575,803.115 c 3.73425,-6.5445 5.82375,-14.15175 5.82375,-22.39275 0,-25.71675 -20.52225,-44.97225 -48.012,-44.97225 C 115.02225,735.74925 94.5,754.878 94.5,780.7215 c 0,25.96875 20.52225,45.4785 47.886,45.4785 7.06275,0 12.05175,-1.10175 17.2815,-2.82075 z"
       id="path4-7"
       style="display:inline;fill:url(#SVGID_2_);stroke-width:0.75" />
    <polygon
       opacity="0.15"
       fill="#ffffff"
       enable-background="new    "
       points="126.613,126.625 53.083,54.625 71.697,54.625 126.613,109.057 "
       id="polygon4"
       transform="matrix(0.75,0,0,0.75,94.5,734.106)"
       style="display:inline" />
  </g>
  <path
     id="rect12"
     style="display:inline;opacity:1;fill:#ffffff;stroke:#000000;stroke-width:0;stroke-dashoffset:302.363;fill-opacity:1"
     inkscape:label="rect12"
     d="M -123 -117 L -123 594 L 654 594 L 654 -117 L -123 -117 z M 36.017578 5.7407227 L 172.2627 5.7407227 C 188.98289 5.7407227 202.53955 19.29737 202.53955 36.017578 L 202.53955 172.2627 C 202.53955 188.98289 188.98289 202.53955 172.2627 202.53955 L 36.017578 202.53955 C 19.29737 202.53955 5.7407227 188.98289 5.7407227 172.2627 L 5.7407227 36.017578 C 5.7407227 19.29737 19.29737 5.7407227 36.017578 5.7407227 z M 312.73682 5.7407227 L 448.98193 5.7407227 C 465.70213 5.7407227 479.25879 19.297363 479.25879 36.017578 L 479.25879 172.2627 C 479.25879 188.98289 465.70213 202.53955 448.98193 202.53955 L 312.73682 202.53955 C 296.0166 202.53955 282.45996 188.98289 282.45996 172.2627 L 282.45996 36.017578 C 282.45996 19.297363 296.0166 5.7407227 312.73682 5.7407227 z M 36.017578 282.45996 L 172.2627 282.45996 C 188.98289 282.45996 202.53955 296.01658 202.53955 312.73682 L 202.53955 448.98193 C 202.53955 465.70212 188.98289 479.25879 172.2627 479.25879 L 36.017578 479.25879 C 19.297371 479.25879 5.7407227 465.70212 5.7407227 448.98193 L 5.7407227 312.73682 C 5.7407227 296.01658 19.297371 282.45996 36.017578 282.45996 z M 312.73682 282.45996 L 448.98193 282.45996 C 465.70212 282.45996 479.25879 296.0166 479.25879 312.73682 L 479.25879 448.98193 C 479.25879 465.70213 465.70212 479.25879 448.98193 479.25879 L 312.73682 479.25879 C 296.01658 479.25879 282.45996 465.70213 282.45996 448.98193 L 282.45996 312.73682 C 282.45996 296.0166 296.01658 282.45996 312.73682 282.45996 z " />
</svg>
