<?xml version="1.0" encoding="UTF-8" standalone="no"?>
<svg
   height="484.99997pt"
   viewBox="0 0 484.99997 484.99997"
   width="484.99997pt"
   version="1.1"
   id="svg9"
   sodipodi:docname="icon.svg"
   inkscape:version="1.3 (0e150ed6c4, 2023-07-21)"
   inkscape:export-filename="icon.svg"
   inkscape:export-xdpi="96"
   inkscape:export-ydpi="96"
   xmlns:inkscape="http://www.inkscape.org/namespaces/inkscape"
   xmlns:sodipodi="http://sodipodi.sourceforge.net/DTD/sodipodi-0.dtd"
   xmlns="http://www.w3.org/2000/svg"
   xmlns:svg="http://www.w3.org/2000/svg">
  <defs
     id="defs9">
    <linearGradient
       id="swatch1"
       inkscape:swatch="solid">
      <stop
         style="stop-color:#000000;stop-opacity:1;"
         offset="0"
         id="stop1" />
    </linearGradient>
    <linearGradient
       id="SVGID_1_"
       gradientUnits="userSpaceOnUse"
       x1="402.52441"
       y1="-220.87061"
       x2="400.64789"
       y2="-97.502296"
       gradientTransform="matrix(1,0,0,-1,-300.5195,-92.5547)">
      <stop
         offset="0"
         style="stop-color:#589632"
         id="stop1-3" />
      <stop
         offset="1"
         style="stop-color:#93B023"
         id="stop2" />
    </linearGradient>
    <linearGradient
       id="SVGID_2_"
       gradientUnits="userSpaceOnUse"
       x1="365.46191"
       y1="-221.14549"
       x2="363.59229"
       y2="-98.226997"
       gradientTransform="matrix(0.75,0,0,-0.75,-130.88962,664.68997)">
      <stop
         offset="0"
         style="stop-color:#589632"
         id="stop3" />
      <stop
         offset="1"
         style="stop-color:#93B023"
         id="stop4" />
    </linearGradient>
    <linearGradient
       id="SVGID_1_-5"
       gradientUnits="userSpaceOnUse"
       x1="402.52441"
       y1="-220.87061"
       x2="400.64789"
       y2="-97.502296"
       gradientTransform="matrix(1,0,0,-1,-300.5195,-92.5547)">
      <stop
         offset="0"
         style="stop-color:#589632"
         id="stop1-3-5" />
      <stop
         offset="1"
         style="stop-color:#93B023"
         id="stop2-6" />
    </linearGradient>
    <linearGradient
       id="SVGID_2_-4"
       gradientUnits="userSpaceOnUse"
       x1="365.46191"
       y1="-221.14549"
       x2="363.59229"
       y2="-98.226997"
       gradientTransform="matrix(0.75,0,0,-0.75,-130.88962,664.68997)">
      <stop
         offset="0"
         style="stop-color:#589632"
         id="stop3-4" />
      <stop
         offset="1"
         style="stop-color:#93B023"
         id="stop4-6" />
    </linearGradient>
  </defs>
  <sodipodi:namedview
     id="namedview9"
     pagecolor="#000000"
     bordercolor="#000000"
     borderopacity="0.25"
     inkscape:showpageshadow="2"
     inkscape:pageopacity="0.0"
     inkscape:pagecheckerboard="0"
     inkscape:deskcolor="#d1d1d1"
     inkscape:document-units="pt"
     inkscape:zoom="0.35355339"
     inkscape:cx="196.57568"
     inkscape:cy="-49.497474"
     inkscape:window-width="1920"
     inkscape:window-height="1094"
     inkscape:window-x="-11"
     inkscape:window-y="-11"
     inkscape:window-maximized="1"
     inkscape:current-layer="svg9"
     showgrid="false"
     inkscape:export-bgcolor="#f1f7d400"
     showguides="false" />
  <rect
     style="display:inline;fill:#000000;fill-opacity:1;stroke:#8bd804;stroke-width:10;stroke-linecap:square;stroke-miterlimit:4.8;stroke-dasharray:none;stroke-dashoffset:0;stroke-opacity:1;paint-order:stroke markers fill"
     id="rect21-5"
     width="462"
     height="463.5"
     x="11.499985"
     y="10.749985" />
  <g
     id="g9"
     style="display:inline"
     transform="matrix(0.68524606,0,0,0.68524606,17.612411,14.643743)" />
  <g
     id="g1"
     transform="matrix(19.83286,0,0,19.83286,-2387.919,-15112.394)"
     style="display:none;opacity:0.7;mix-blend-mode:normal"
     inkscape:label="g1">
    <polygon
       fill="#ee7913"
       points="71.697,54.625 52.613,54.625 52.613,72.746 68.613,88.548 68.613,69.625 86.891,69.625 "
       id="polygon1"
       transform="matrix(0.75,0,0,0.75,94.5,734.106)"
       style="display:inline" />
    <polygon
       fill="url(#SVGID_1_)"
       points="76.613,77.625 76.613,96.033 107.143,126.625 126.613,126.625 126.613,109.057 94.488,77.625 "
       id="polygon2"
       style="display:inline;fill:url(#SVGID_1_)"
       transform="matrix(0.75,0,0,0.75,94.5,734.106)" />
    <polygon
       fill="#f0e64a"
       points="76.613,77.625 94.488,77.625 86.891,69.625 68.613,69.625 68.613,88.548 76.613,96.033 "
       id="polygon3"
       transform="matrix(0.75,0,0,0.75,94.5,734.106)"
       style="display:inline" />
    <path
       fill="url(#SVGID_2_)"
       d="m 146.19225,810.27 c -0.87375,0.1815 -1.32675,0.11775 -3.51375,0.11775 -15.6495,0 -28.959,-12.8685 -28.959,-29.5545 0,-16.686 13.16325,-29.27025 28.959,-29.27025 15.79575,0 28.37475,12.585 28.37475,29.27025 0,2.71425 -0.33825,5.32425 -0.963,7.7985 L 184.575,803.115 c 3.73425,-6.5445 5.82375,-14.15175 5.82375,-22.39275 0,-25.71675 -20.52225,-44.97225 -48.012,-44.97225 C 115.02225,735.74925 94.5,754.878 94.5,780.7215 c 0,25.96875 20.52225,45.4785 47.886,45.4785 7.06275,0 12.05175,-1.10175 17.2815,-2.82075 z"
       id="path4-7"
       style="display:inline;fill:url(#SVGID_2_);stroke-width:0.75" />
    <polygon
       opacity="0.15"
       fill="#ffffff"
       enable-background="new    "
       points="53.083,54.625 71.697,54.625 126.613,109.057 126.613,126.625 "
       id="polygon4"
       transform="matrix(0.75,0,0,0.75,94.5,734.106)"
       style="display:inline" />
  </g>
  <g
     id="g2"
     transform="matrix(19.83286,0,0,19.83286,-2675.2053,-17653.527)"
     style="display:none;opacity:0.7;mix-blend-mode:normal"
     inkscape:label="g1" />
  <path
     id="rect2"
     style="display:none;opacity:1;fill:#ffffff;fill-opacity:1;stroke:#ffffff;stroke-width:15.2;stroke-dasharray:none;stroke-dashoffset:302.363;stroke-opacity:1"
     d="m -123.03662,-99.70166 v 693.6709 h 723.3706 V -99.70166 Z M 39.628418,9.8393555 H 173.6792 c 16.45094,0 29.78906,13.3381125 29.78906,29.7890625 V 173.6792 c 0,16.45094 -13.33812,29.78906 -29.78906,29.78906 H 39.628418 c -16.450949,0 -29.7890625,-13.33812 -29.7890625,-29.78906 V 39.628418 c 0,-16.45095 13.3381135,-29.7890625 29.7890625,-29.7890625 z m 271.691892,0 h 134.05078 c 16.45095,0 29.79053,13.3381055 29.79053,29.7890625 V 173.6792 c 0,16.45094 -13.33958,29.78906 -29.79053,29.78906 H 311.32031 c -16.45096,0 -29.78906,-13.33812 -29.78906,-29.78906 V 39.628418 c 0,-16.450957 13.3381,-29.7890625 29.78906,-29.7890625 z M 39.628418,281.53125 H 173.6792 c 16.45094,0 29.78906,13.33808 29.78906,29.78906 v 134.05078 c 0,16.45093 -13.33812,29.79053 -29.78906,29.79053 H 39.628418 c -16.450949,0 -29.7890625,-13.3396 -29.7890625,-29.79053 V 311.32031 c 0,-16.45098 13.3381135,-29.78906 29.7890625,-29.78906 z m 271.691892,0 h 134.05078 c 16.45093,0 29.79053,13.3381 29.79053,29.78906 v 134.05078 c 0,16.45095 -13.3396,29.79053 -29.79053,29.79053 H 311.32031 c -16.45098,0 -29.78906,-13.33958 -29.78906,-29.79053 V 311.32031 c 0,-16.45096 13.33808,-29.78906 29.78906,-29.78906 z" />
  <path
     style="display:inline;fill:#8bd804;fill-opacity:1;stroke:#000000;stroke-width:12.231;stroke-dasharray:none;stroke-opacity:1"
     d="m 179.43892,151.41179 c -15.47791,0 -28.02711,12.54922 -28.02711,28.02715 v 126.12212 c 0,15.47793 12.5492,28.02712 28.02711,28.02712 h 126.1221 c 15.47794,0 28.02714,-12.54919 28.02714,-28.02712 V 179.43894 c 0,-15.47793 -12.5492,-28.02715 -28.02714,-28.02715 z"
     id="path8" />
  <path
     id="path2-2"
     style="display:none;fill:#28a825;fill-opacity:0.490196;stroke:#000000;stroke-width:0;stroke-dasharray:none;stroke-opacity:1"
     inkscape:label="path2"
     d="m 315.21553,35.657679 c -5.05121,0 -9.14662,4.09541 -9.14662,9.146585 v 41.159751 c 0,5.051256 4.09541,9.146665 9.14662,9.146665 h 41.15976 c 5.0512,0 9.14661,-4.095409 9.14661,-9.146665 V 44.804264 c 0,-5.051175 -4.09541,-9.146585 -9.14661,-9.146585 z m 83.42191,0 c -5.0512,0 -9.14661,4.09541 -9.14661,9.146585 v 41.159751 c 0,5.051256 4.09541,9.146665 9.14661,9.146665 h 41.15977 c 5.0512,0 9.14706,-4.095409 9.14706,-9.146665 V 44.804264 c 0,-5.051175 -4.09586,-9.146585 -9.14706,-9.146585 z m -83.42191,83.421931 c -5.05121,0 -9.14662,4.09541 -9.14662,9.14658 v 41.15975 c 0,5.05125 4.09541,9.14707 9.14662,9.14707 h 41.15976 c 5.0512,0 9.14661,-4.09582 9.14661,-9.14707 v -41.15975 c 0,-5.05117 -4.09541,-9.14658 -9.14661,-9.14658 z m 83.42191,0 c -5.05121,0 -9.14661,4.09541 -9.14661,9.14658 v 41.15975 c 0,5.05125 4.0954,9.14707 9.14661,9.14707 h 41.15977 c 5.05119,0 9.14706,-4.09582 9.14706,-9.14707 v -41.15975 c 0,-5.05117 -4.09587,-9.14658 -9.14706,-9.14658 z" />
  <path
     id="path2-2-6"
     style="display:none;fill:#28a825;fill-opacity:0.490196;stroke:#000000;stroke-width:0;stroke-dasharray:none;stroke-opacity:1"
     inkscape:label="path2"
     d="m 43.943909,35.774977 c -5.05121,0 -9.14662,4.09541 -9.14662,9.14658 v 41.15975 c 0,5.05126 4.09541,9.14667 9.14662,9.14667 h 41.15976 c 5.0512,0 9.14661,-4.09541 9.14661,-9.14667 v -41.15975 c 0,-5.05117 -4.09541,-9.14658 -9.14661,-9.14658 z m 83.421911,0 c -5.0512,0 -9.14661,4.09541 -9.14661,9.14658 v 41.15975 c 0,5.05126 4.09541,9.14667 9.14661,9.14667 h 41.15977 c 5.0512,0 9.14706,-4.09541 9.14706,-9.14667 v -41.15975 c 0,-5.05117 -4.09586,-9.14658 -9.14706,-9.14658 z M 43.943909,119.19691 c -5.05121,0 -9.14662,4.09541 -9.14662,9.14658 v 41.15975 c 0,5.05125 4.09541,9.14707 9.14662,9.14707 h 41.15976 c 5.0512,0 9.14661,-4.09582 9.14661,-9.14707 v -41.15975 c 0,-5.05117 -4.09541,-9.14658 -9.14661,-9.14658 z m 83.421911,0 c -5.05121,0 -9.14661,4.09541 -9.14661,9.14658 v 41.15975 c 0,5.05125 4.0954,9.14707 9.14661,9.14707 h 41.15977 c 5.05119,0 9.14706,-4.09582 9.14706,-9.14707 v -41.15975 c 0,-5.05117 -4.09587,-9.14658 -9.14706,-9.14658 z" />
  <g
     id="g20"
     transform="matrix(1.0917755,0,0,1.0917755,-17.676384,-18.28445)"
     style="display:none;stroke-width:0;stroke-dasharray:none">
    <path
       style="display:inline;fill:#8bd804;fill-opacity:1;stroke:#131d00;stroke-width:0;stroke-linecap:square;stroke-miterlimit:4.8;stroke-dasharray:none;stroke-dashoffset:0;stroke-opacity:1;paint-order:normal"
       d="m 317.68123,78.319723 c -8.35254,0 -15.12463,6.772048 -15.12463,15.124619 v 68.060828 c 0,8.35254 6.77209,15.12538 15.12463,15.12538 h 68.06082 c 8.35256,0 15.12464,-6.77284 15.12464,-15.12538 V 93.444342 c 0,-8.352571 -6.77208,-15.124619 -15.12464,-15.124619 z"
       id="path19-7-3-1" />
    <path
       style="display:inline;fill:#8bd804;fill-opacity:1;stroke:#131d00;stroke-width:0;stroke-linecap:square;stroke-miterlimit:4.8;stroke-dasharray:none;stroke-dashoffset:0;stroke-opacity:1;paint-order:normal"
       d="m 92.97025,82.405258 c -8.35254,0 -15.124626,6.772048 -15.124626,15.124619 v 68.060833 c 0,8.35254 6.772086,15.12537 15.124626,15.12537 h 68.06082 c 8.35256,0 15.12465,-6.77283 15.12465,-15.12537 V 97.529877 c 0,-8.352571 -6.77209,-15.124619 -15.12465,-15.124619 z"
       id="path19-7-3"
       transform="translate(-2.1008337,-3.6372932)" />
    <path
       style="display:inline;fill:#8bd804;fill-opacity:1;stroke:#131d00;stroke-width:0;stroke-linecap:square;stroke-miterlimit:4.8;stroke-dasharray:none;stroke-dashoffset:0;stroke-opacity:1;paint-order:normal"
       d="m 95.05624,301.09485 c -8.35254,0 -15.124628,6.77204 -15.124628,15.12461 v 68.06084 c 0,8.35253 6.772088,15.12536 15.124628,15.12536 h 68.06084 c 8.35256,0 15.12464,-6.77283 15.12464,-15.12536 v -68.06084 c 0,-8.35257 -6.77208,-15.12461 -15.12464,-15.12461 z"
       id="path19-7-3-1-5-5" />
  </g>
  <path
     id="path2-2-6-4"
     style="display:none;fill:#28a825;fill-opacity:0.490196;stroke:none;stroke-width:0;stroke-dasharray:none;stroke-opacity:0"
     inkscape:label="path2"
     d="m 43.943909,35.774977 c -5.05121,0 -9.14662,4.09541 -9.14662,9.14658 v 41.15975 c 0,5.05126 4.09541,9.14667 9.14662,9.14667 h 41.15976 c 5.0512,0 9.14661,-4.09541 9.14661,-9.14667 v -41.15975 c 0,-5.05117 -4.09541,-9.14658 -9.14661,-9.14658 z m 83.421911,0 c -5.0512,0 -9.14661,4.09541 -9.14661,9.14658 v 41.15975 c 0,5.05126 4.09541,9.14667 9.14661,9.14667 h 41.15977 c 5.0512,0 9.14706,-4.09541 9.14706,-9.14667 v -41.15975 c 0,-5.05117 -4.09586,-9.14658 -9.14706,-9.14658 z M 43.943909,119.19691 c -5.05121,0 -9.14662,4.09541 -9.14662,9.14658 v 41.15975 c 0,5.05125 4.09541,9.14707 9.14662,9.14707 h 41.15976 c 5.0512,0 9.14661,-4.09582 9.14661,-9.14707 v -41.15975 c 0,-5.05117 -4.09541,-9.14658 -9.14661,-9.14658 z m 83.421911,0 c -5.05121,0 -9.14661,4.09541 -9.14661,9.14658 v 41.15975 c 0,5.05125 4.0954,9.14707 9.14661,9.14707 h 41.15977 c 5.05119,0 9.14706,-4.09582 9.14706,-9.14707 v -41.15975 c 0,-5.05117 -4.09587,-9.14658 -9.14706,-9.14658 z" />
  <path
     id="path2-2-6-1"
     style="display:none;fill:#28a825;fill-opacity:0.489712;stroke:#000000;stroke-width:0;stroke-dasharray:none;stroke-opacity:1"
     inkscape:label="path2"
     d="m 44.141938,306.87756 c -5.05121,0 -9.14662,4.09541 -9.14662,9.14658 v 41.15975 c 0,5.05126 4.09541,9.14667 9.14662,9.14667 h 41.15976 c 5.0512,0 9.14661,-4.09541 9.14661,-9.14667 v -41.15975 c 0,-5.05117 -4.09541,-9.14658 -9.14661,-9.14658 z m 83.421912,0 c -5.0512,0 -9.14661,4.09541 -9.14661,9.14658 v 41.15975 c 0,5.05126 4.09541,9.14667 9.14661,9.14667 h 41.15977 c 5.0512,0 9.14706,-4.09541 9.14706,-9.14667 v -41.15975 c 0,-5.05117 -4.09586,-9.14658 -9.14706,-9.14658 z m -83.421912,83.42193 c -5.05121,0 -9.14662,4.09541 -9.14662,9.14658 v 41.15975 c 0,5.05125 4.09541,9.14707 9.14662,9.14707 h 41.15976 c 5.0512,0 9.14661,-4.09582 9.14661,-9.14707 v -41.15975 c 0,-5.05117 -4.09541,-9.14658 -9.14661,-9.14658 z m 83.421912,0 c -5.05121,0 -9.14661,4.09541 -9.14661,9.14658 v 41.15975 c 0,5.05125 4.0954,9.14707 9.14661,9.14707 h 41.15977 c 5.05119,0 9.14706,-4.09582 9.14706,-9.14707 v -41.15975 c 0,-5.05117 -4.09587,-9.14658 -9.14706,-9.14658 z" />
  <path
     id="path2-2-6-1-13"
     style="display:none;fill:#28a825;fill-opacity:0.489712;stroke:#000000;stroke-width:0;stroke-dasharray:none;stroke-opacity:1"
     inkscape:label="path2"
     d="m 44.141938,306.87756 c -5.05121,0 -9.14662,4.09541 -9.14662,9.14658 v 41.15975 c 0,5.05126 4.09541,9.14667 9.14662,9.14667 h 41.15976 c 5.0512,0 9.14661,-4.09541 9.14661,-9.14667 v -41.15975 c 0,-5.05117 -4.09541,-9.14658 -9.14661,-9.14658 z m 83.421912,0 c -5.0512,0 -9.14661,4.09541 -9.14661,9.14658 v 41.15975 c 0,5.05126 4.09541,9.14667 9.14661,9.14667 h 41.15977 c 5.0512,0 9.14706,-4.09541 9.14706,-9.14667 v -41.15975 c 0,-5.05117 -4.09586,-9.14658 -9.14706,-9.14658 z m -83.421912,83.42193 c -5.05121,0 -9.14662,4.09541 -9.14662,9.14658 v 41.15975 c 0,5.05125 4.09541,9.14707 9.14662,9.14707 h 41.15976 c 5.0512,0 9.14661,-4.09582 9.14661,-9.14707 v -41.15975 c 0,-5.05117 -4.09541,-9.14658 -9.14661,-9.14658 z m 83.421912,0 c -5.05121,0 -9.14661,4.09541 -9.14661,9.14658 v 41.15975 c 0,5.05125 4.0954,9.14707 9.14661,9.14707 h 41.15977 c 5.05119,0 9.14706,-4.09582 9.14706,-9.14707 v -41.15975 c 0,-5.05117 -4.09587,-9.14658 -9.14706,-9.14658 z" />
  <path
     id="path2-2-6-1-1"
     style="display:none;fill:#d02900;fill-opacity:0.489712;stroke:#000000;stroke-width:0;stroke-dasharray:none;stroke-opacity:1"
     inkscape:label="path2"
     d="m 311.45037,307.29707 c -5.05121,0 -9.14662,4.09541 -9.14662,9.14658 v 41.15975 c 0,5.05126 4.09541,9.14667 9.14662,9.14667 h 41.15976 c 5.0512,0 9.14661,-4.09541 9.14661,-9.14667 v -41.15975 c 0,-5.05117 -4.09541,-9.14658 -9.14661,-9.14658 z m 83.42191,0 c -5.0512,0 -9.14661,4.09541 -9.14661,9.14658 v 41.15975 c 0,5.05126 4.09541,9.14667 9.14661,9.14667 h 41.15977 c 5.0512,0 9.14706,-4.09541 9.14706,-9.14667 v -41.15975 c 0,-5.05117 -4.09586,-9.14658 -9.14706,-9.14658 z M 311.45037,390.719 c -5.05121,0 -9.14662,4.09541 -9.14662,9.14658 v 41.15975 c 0,5.05125 4.09541,9.14707 9.14662,9.14707 h 41.15976 c 5.0512,0 9.14661,-4.09582 9.14661,-9.14707 v -41.15975 c 0,-5.05117 -4.09541,-9.14658 -9.14661,-9.14658 z m 83.42191,0 c -5.05121,0 -9.14661,4.09541 -9.14661,9.14658 v 41.15975 c 0,5.05125 4.0954,9.14707 9.14661,9.14707 h 41.15977 c 5.05119,0 9.14706,-4.09582 9.14706,-9.14707 v -41.15975 c 0,-5.05117 -4.09587,-9.14658 -9.14706,-9.14658 z" />
  <rect
     style="display:inline;fill:#8bd804;fill-opacity:1;stroke:none;stroke-width:38.9611;stroke-linecap:square;stroke-miterlimit:4.8;stroke-dasharray:none;stroke-dashoffset:0;stroke-opacity:1;paint-order:stroke markers fill"
     id="rect21-8"
     width="360"
     height="361.16882"
     x="62.499985"
     y="61.915573" />
  <path
     id="rect21-0"
     style="display:inline;fill:#000000;fill-opacity:1;stroke:none;stroke-width:42.068;stroke-linecap:square;stroke-miterlimit:4.8;stroke-dasharray:none;stroke-dashoffset:0;stroke-opacity:1;paint-order:stroke markers fill"
     d="M 196.20792,13.93197 14.671674,195.46821 v 94.9535 L 195.31652,471.068 h 93.47409 L 470.3283,289.53031 v -94.9535 L 289.68201,13.93197 Z" />
  <g
     id="g21"
     transform="matrix(0.71891655,0,0,0.71891655,49.807246,14.097753)"
     style="display:inline;stroke-width:0;stroke-dasharray:none">
    <rect
       style="display:none;fill:#000000;fill-opacity:1;stroke:none;stroke-width:27.9601;stroke-linecap:square;stroke-miterlimit:4.8;stroke-dasharray:none;stroke-dashoffset:0;stroke-opacity:1;paint-order:stroke markers fill"
       id="rect21-0-0"
       width="258.35159"
       height="259.19037"
       x="-439.04684"
       y="-447.29858"
       transform="scale(-1)" />
    <path
       id="polygon1-7"
       style="display:none;opacity:1;mix-blend-mode:normal;fill:#8bd804;fill-opacity:1;stroke:#000000;stroke-width:117.569;stroke-miterlimit:8.9;stroke-dasharray:none;stroke-opacity:1;paint-order:stroke fill markers"
       d="m 242.99809,100.94123 c -83.41948,-0.001 -145.980663,58.31097 -145.980663,137.09352 0,79.16452 62.561183,138.63921 145.978393,138.63921 21.53041,0 36.73925,-3.35847 52.68178,-8.59885 L 254.59878,328.112 c -2.66356,0.55429 -4.04435,0.35821 -10.71136,0.35821 -47.70664,0 -88.28022,-39.22932 -88.28022,-90.09572 0,-50.86644 40.12769,-89.22888 88.28022,-89.22888 48.15267,0 86.4991,38.36472 86.4991,89.22888 0,8.27425 -1.03126,16.23077 -2.93559,23.77335 l 44.156,44.15149 c 11.38368,-19.95053 17.75339,-43.14079 17.75339,-68.26309 0,-78.39625 -62.56118,-137.09593 -146.36223,-137.09593 z m -25.6894,119.87988 v 41.43063 l 36.58139,36.12875 18.29093,17.1133 69.80167,69.94367 h 44.51518 V 345.27093 L 297.9002,257.45436 295.67986,255.116 260.94135,220.82111 h -42.55804 z" />
  </g>
  <rect
     style="display:inline;fill:#000000;fill-opacity:1;stroke:none;stroke-width:7.12682;stroke-linecap:square;stroke-miterlimit:4.8;stroke-dasharray:none;stroke-dashoffset:0;stroke-opacity:1;paint-order:stroke markers fill"
     id="rect21-84"
     width="206.77304"
     height="207.4444"
     x="233.47321"
     y="245.24173" />
  <path
     style="display:none;opacity:1;fill:#8bd804;fill-opacity:1;stroke:#8bd804;stroke-width:46.9332;stroke-linecap:square;stroke-miterlimit:8.9;stroke-dasharray:none;stroke-dashoffset:0;stroke-opacity:1;paint-order:stroke markers fill"
     d="M 30.605577,242.49998 H 454.39439"
     id="path22" />
  <path
     style="display:none;fill:#8bd804;fill-opacity:1;stroke:#8bd804;stroke-width:46.9332;stroke-linecap:square;stroke-miterlimit:8.9;stroke-dasharray:none;stroke-dashoffset:0;stroke-opacity:1;paint-order:stroke markers fill"
     d="M 242.49998,30.605576 V 454.39439"
     id="path22-3" />
  <circle
     style="display:inline;opacity:1;fill:#000000;fill-opacity:1;stroke:none;stroke-width:38.2669;stroke-linecap:square;stroke-miterlimit:8.9;stroke-dasharray:none;stroke-dashoffset:0;stroke-opacity:1;paint-order:stroke markers fill"
     id="path23"
     cx="242.49998"
     cy="242.49998"
     r="91.999893" />
  <path
     id="polygon1-7-1"
     style="display:inline;mix-blend-mode:normal;fill:#8bd804;fill-opacity:1;stroke:none;stroke-width:0;stroke-dasharray:none;stroke-opacity:1;paint-order:stroke fill markers"
     d="m 242.31991,108.23796 c -78.73641,-9.5e-4 -137.78547,55.03745 -137.78547,129.39723 0,74.7203 59.04906,130.85615 137.78333,130.85615 20.32171,0 34.67674,-3.16993 49.72428,-8.11611 l -38.7727,-37.71963 c -2.51403,0.52318 -3.8173,0.3381 -10.11004,0.3381 -45.02844,0 -83.32426,-37.02703 -83.32426,-85.03783 0,-48.01086 37.87496,-84.21967 83.32426,-84.21967 45.44943,0 81.64314,36.21096 81.64314,84.21967 0,7.80973 -0.97337,15.31959 -2.7708,22.43873 l 41.67713,41.67287 c 10.74462,-18.83053 16.75674,-40.71891 16.75674,-64.43087 0,-73.99517 -59.04906,-129.39951 -138.14561,-129.39951 z m -24.24723,113.14995 v 39.10476 l 34.52775,34.10051 17.2641,16.15259 65.88308,66.0171 h 42.01615 v -37.91162 l -83.62389,-82.88664 -2.0957,-2.2071 -32.78832,-32.3696 h -40.16888 z" />
  <rect
     style="display:inline;opacity:1;fill:none;fill-opacity:1;stroke:#8bd804;stroke-width:29.8776;stroke-linecap:square;stroke-miterlimit:4.8;stroke-dasharray:none;stroke-dashoffset:0;stroke-opacity:1;paint-order:stroke markers fill"
     id="rect21"
     width="455.13644"
     height="455.16922"
     x="14.931763"
     y="14.915375" />
</svg>
