<?xml version="1.0" encoding="UTF-8" standalone="no"?>
<svg
   height="484.99997pt"
   viewBox="0 0 484.99997 484.99997"
   width="484.99997pt"
   version="1.1"
   id="svg9"
   sodipodi:docname="icon.svg"
   inkscape:version="1.3 (0e150ed6c4, 2023-07-21)"
   inkscape:export-filename="icon.svg"
   inkscape:export-xdpi="96"
   inkscape:export-ydpi="96"
   xmlns:inkscape="http://www.inkscape.org/namespaces/inkscape"
   xmlns:sodipodi="http://sodipodi.sourceforge.net/DTD/sodipodi-0.dtd"
   xmlns="http://www.w3.org/2000/svg"
   xmlns:svg="http://www.w3.org/2000/svg">
  <defs
     id="defs9">
    <linearGradient
       id="swatch1"
       inkscape:swatch="solid">
      <stop
         style="stop-color:#000000;stop-opacity:1;"
         offset="0"
         id="stop1" />
    </linearGradient>
  </defs>
  <sodipodi:namedview
     id="namedview9"
     pagecolor="#f1f7d4"
     bordercolor="#000000"
     borderopacity="0.25"
     inkscape:showpageshadow="2"
     inkscape:pageopacity="0.0"
     inkscape:pagecheckerboard="0"
     inkscape:deskcolor="#d1d1d1"
     inkscape:document-units="pt"
     inkscape:zoom="0.3535534"
     inkscape:cx="420.02142"
     inkscape:cy="207.88939"
     inkscape:window-width="1920"
     inkscape:window-height="1094"
     inkscape:window-x="-11"
     inkscape:window-y="-11"
     inkscape:window-maximized="1"
     inkscape:current-layer="svg9"
     showgrid="false"
     inkscape:export-bgcolor="#f1f7d400" />
  <path
     d="m 432.86959,110.70565 v 263.5887 c 0,32.34793 -26.2273,58.57523 -58.57527,58.57523 H 110.70563 c -32.347936,0 -58.575249,-26.2273 -58.575249,-58.57523 v -263.5887 c 0,-32.347957 26.227313,-58.575259 58.575249,-58.575259 h 263.58869 c 32.34797,0 58.57527,26.227302 58.57527,58.575259 z m 0,0"
     fill="#bbd926"
     id="path2-6"
     style="fill:#c2dd3b;fill-opacity:1;stroke:#000000;stroke-width:0;stroke-dasharray:none;stroke-dashoffset:0;stroke-opacity:1" />
  <path
     d="M 44.073799,14.17325 H 178.62627 c 16.51245,0 29.90054,13.388088 29.90054,29.900549 V 178.62627 c 0,16.51245 -13.38809,29.90054 -29.90054,29.90054 H 44.073799 c -16.512461,0 -29.900549,-13.38809 -29.900549,-29.90054 V 44.073799 c 0,-16.512461 13.388088,-29.900549 29.900549,-29.900549 z m 0,0"
     fill="#bbd926"
     id="path2"
     style="fill:#c9e151;fill-opacity:1;stroke:#000000;stroke-width:11.3386;stroke-dasharray:none;stroke-opacity:1" />
  <path
     d="m 306.3737,276.47315 h 134.55247 c 16.51245,0 29.90055,13.38809 29.90055,29.90055 v 134.55247 c 0,16.51246 -13.3881,29.90055 -29.90055,29.90055 H 306.3737 c -16.51247,0 -29.90055,-13.38809 -29.90055,-29.90055 V 306.3737 c 0,-16.51246 13.38808,-29.90055 29.90055,-29.90055 z m 0,0"
     fill="#d6e87d"
     id="path3"
     style="fill:#d6e87d;fill-opacity:1;stroke:#000000;stroke-width:11.3386;stroke-dasharray:none;stroke-opacity:1;stroke-dashoffset:68.03160095" />
  <path
     d="m 306.3737,14.17325 h 134.55247 c 16.51246,0 29.90055,13.388087 29.90055,29.900549 V 178.62627 c 0,16.51245 -13.38809,29.90055 -29.90055,29.90055 H 306.3737 c -16.51246,0 -29.90054,-13.3881 -29.90054,-29.90055 V 44.073799 c 0,-16.512462 13.38808,-29.900549 29.90054,-29.900549 z m 0,0"
     fill="#c9e052"
     id="path1"
     style="fill:#d0e468;fill-opacity:1;stroke:#000000;stroke-width:11.3386;stroke-dasharray:none;stroke-dashoffset:0;stroke-opacity:1" />
  <path
     d="M 44.073799,276.47315 H 178.62627 c 16.51245,0 29.90054,13.38808 29.90054,29.90055 v 134.55247 c 0,16.51245 -13.38809,29.90055 -29.90054,29.90055 H 44.073799 c -16.512461,0 -29.900549,-13.3881 -29.900549,-29.90055 V 306.3737 c 0,-16.51247 13.388088,-29.90055 29.900549,-29.90055 z m 0,0"
     fill="#e3f0a8"
     id="path4"
     style="fill:#dcec92;fill-opacity:1;stroke:#000000;stroke-width:11.3386;stroke-dasharray:none;stroke-opacity:1" />
</svg>
