<?xml version="1.0" encoding="UTF-8" standalone="no"?>
<svg
   height="484.99997pt"
   viewBox="0 0 484.99997 484.99997"
   width="484.99997pt"
   version="1.1"
   id="svg9"
   sodipodi:docname="icon.svg"
   inkscape:version="1.3 (0e150ed6c4, 2023-07-21)"
   inkscape:export-filename="..\..\..\iconpic.png"
   inkscape:export-xdpi="96"
   inkscape:export-ydpi="96"
   xmlns:inkscape="http://www.inkscape.org/namespaces/inkscape"
   xmlns:sodipodi="http://sodipodi.sourceforge.net/DTD/sodipodi-0.dtd"
   xmlns:xlink="http://www.w3.org/1999/xlink"
   xmlns="http://www.w3.org/2000/svg"
   xmlns:svg="http://www.w3.org/2000/svg">
  <defs
     id="defs9">
    <linearGradient
       id="linearGradient18"
       inkscape:collect="always">
      <stop
         style="stop-color:#ffffff;stop-opacity:1;"
         offset="0"
         id="stop18" />
      <stop
         style="stop-color:#ffffff;stop-opacity:0;"
         offset="1"
         id="stop21" />
    </linearGradient>
    <inkscape:path-effect
       effect="fillet_chamfer"
       id="path-effect3"
       is_visible="true"
       lpeversion="1"
       nodesatellites_param="F,0,0,1,0,0,0,1 @ F,0,0,1,0,0,0,1 @ F,0,0,1,0,0,0,1 @ F,0,0,1,0,0,0,1"
       radius="0"
       unit="px"
       method="auto"
       mode="F"
       chamfer_steps="1"
       flexible="false"
       use_knot_distance="true"
       apply_no_radius="true"
       apply_with_radius="true"
       only_selected="false"
       hide_knots="false" />
    <linearGradient
       id="swatch20"
       inkscape:swatch="solid">
      <stop
         style="stop-color:#000000;stop-opacity:1;"
         offset="0"
         id="stop20" />
    </linearGradient>
    <linearGradient
       id="swatch19"
       inkscape:swatch="solid">
      <stop
         style="stop-color:#d5d5d5;stop-opacity:1;"
         offset="0"
         id="stop19" />
    </linearGradient>
    <linearGradient
       id="swatch1"
       inkscape:swatch="solid">
      <stop
         style="stop-color:#000000;stop-opacity:1;"
         offset="0"
         id="stop1" />
    </linearGradient>
    <linearGradient
       id="SVGID_1_"
       gradientUnits="userSpaceOnUse"
       x1="402.52441"
       y1="-220.87061"
       x2="400.64789"
       y2="-97.502296"
       gradientTransform="matrix(1,0,0,-1,-300.5195,-92.5547)">
      <stop
         offset="0"
         style="stop-color:#589632"
         id="stop1-3" />
      <stop
         offset="1"
         style="stop-color:#93B023"
         id="stop2" />
    </linearGradient>
    <linearGradient
       id="SVGID_2_"
       gradientUnits="userSpaceOnUse"
       x1="365.46191"
       y1="-221.14549"
       x2="363.59229"
       y2="-98.226997"
       gradientTransform="matrix(0.75,0,0,-0.75,-130.88962,664.68997)">
      <stop
         offset="0"
         style="stop-color:#589632"
         id="stop3" />
      <stop
         offset="1"
         style="stop-color:#93B023"
         id="stop4" />
    </linearGradient>
    <linearGradient
       id="SVGID_1_-5"
       gradientUnits="userSpaceOnUse"
       x1="402.52441"
       y1="-220.87061"
       x2="400.64789"
       y2="-97.502296"
       gradientTransform="matrix(1,0,0,-1,-300.5195,-92.5547)">
      <stop
         offset="0"
         style="stop-color:#589632"
         id="stop1-3-5" />
      <stop
         offset="1"
         style="stop-color:#93B023"
         id="stop2-6" />
    </linearGradient>
    <linearGradient
       id="SVGID_2_-4"
       gradientUnits="userSpaceOnUse"
       x1="365.46191"
       y1="-221.14549"
       x2="363.59229"
       y2="-98.226997"
       gradientTransform="matrix(0.75,0,0,-0.75,-130.88962,664.68997)">
      <stop
         offset="0"
         style="stop-color:#589632"
         id="stop3-4" />
      <stop
         offset="1"
         style="stop-color:#93B023"
         id="stop4-6" />
    </linearGradient>
    <linearGradient
       inkscape:collect="always"
       xlink:href="#linearGradient18"
       id="linearGradient21"
       x1="1297.5"
       y1="-1387.2526"
       x2="1782.6466"
       y2="-1387.2526"
       gradientUnits="userSpaceOnUse" />
  </defs>
  <sodipodi:namedview
     id="namedview9"
     pagecolor="#000000"
     bordercolor="#000000"
     borderopacity="0.25"
     inkscape:showpageshadow="2"
     inkscape:pageopacity="0.0"
     inkscape:pagecheckerboard="0"
     inkscape:deskcolor="#d1d1d1"
     inkscape:document-units="pt"
     inkscape:zoom="0.5"
     inkscape:cx="370"
     inkscape:cy="133"
     inkscape:window-width="1920"
     inkscape:window-height="1094"
     inkscape:window-x="-11"
     inkscape:window-y="-11"
     inkscape:window-maximized="1"
     inkscape:current-layer="g15"
     showgrid="false"
     inkscape:export-bgcolor="#8bd804ff"
     showguides="false" />
  <rect
     style="display:inline;fill:#000000;fill-opacity:1;stroke:#8bd804;stroke-width:10;stroke-linecap:square;stroke-miterlimit:4.8;stroke-dasharray:none;stroke-dashoffset:0;stroke-opacity:1;paint-order:stroke markers fill"
     id="rect21-5"
     width="462"
     height="463.5"
     x="-51.89357"
     y="-647.89764" />
  <g
     id="g9"
     style="display:inline"
     transform="matrix(0.68524606,0,0,0.68524606,17.612411,14.643743)" />
  <g
     id="g1"
     transform="matrix(19.83286,0,0,19.83286,-2387.919,-15112.394)"
     style="display:none;opacity:0.7;mix-blend-mode:normal"
     inkscape:label="g1">
    <polygon
       fill="#ee7913"
       points="71.697,54.625 52.613,54.625 52.613,72.746 68.613,88.548 68.613,69.625 86.891,69.625 "
       id="polygon1"
       transform="matrix(0.75,0,0,0.75,94.5,734.106)"
       style="display:inline" />
    <polygon
       fill="url(#SVGID_1_)"
       points="76.613,77.625 76.613,96.033 107.143,126.625 126.613,126.625 126.613,109.057 94.488,77.625 "
       id="polygon2"
       style="display:inline;fill:url(#SVGID_1_)"
       transform="matrix(0.75,0,0,0.75,94.5,734.106)" />
    <polygon
       fill="#f0e64a"
       points="76.613,77.625 94.488,77.625 86.891,69.625 68.613,69.625 68.613,88.548 76.613,96.033 "
       id="polygon3"
       transform="matrix(0.75,0,0,0.75,94.5,734.106)"
       style="display:inline" />
    <path
       fill="url(#SVGID_2_)"
       d="m 146.19225,810.27 c -0.87375,0.1815 -1.32675,0.11775 -3.51375,0.11775 -15.6495,0 -28.959,-12.8685 -28.959,-29.5545 0,-16.686 13.16325,-29.27025 28.959,-29.27025 15.79575,0 28.37475,12.585 28.37475,29.27025 0,2.71425 -0.33825,5.32425 -0.963,7.7985 L 184.575,803.115 c 3.73425,-6.5445 5.82375,-14.15175 5.82375,-22.39275 0,-25.71675 -20.52225,-44.97225 -48.012,-44.97225 C 115.02225,735.74925 94.5,754.878 94.5,780.7215 c 0,25.96875 20.52225,45.4785 47.886,45.4785 7.06275,0 12.05175,-1.10175 17.2815,-2.82075 z"
       id="path4-7"
       style="display:inline;fill:url(#SVGID_2_);stroke-width:0.75" />
    <polygon
       opacity="0.15"
       fill="#ffffff"
       enable-background="new    "
       points="53.083,54.625 71.697,54.625 126.613,109.057 126.613,126.625 "
       id="polygon4"
       transform="matrix(0.75,0,0,0.75,94.5,734.106)"
       style="display:inline" />
  </g>
  <g
     id="g2"
     transform="matrix(19.83286,0,0,19.83286,-2675.2053,-17653.527)"
     style="display:none;opacity:0.7;mix-blend-mode:normal"
     inkscape:label="g1" />
  <path
     id="rect2"
     style="display:none;opacity:1;fill:#ffffff;fill-opacity:1;stroke:#ffffff;stroke-width:15.2;stroke-dasharray:none;stroke-dashoffset:302.363;stroke-opacity:1"
     d="m -123.03662,-99.70166 v 693.6709 h 723.3706 V -99.70166 Z M 39.628418,9.8393555 H 173.6792 c 16.45094,0 29.78906,13.3381125 29.78906,29.7890625 V 173.6792 c 0,16.45094 -13.33812,29.78906 -29.78906,29.78906 H 39.628418 c -16.450949,0 -29.7890625,-13.33812 -29.7890625,-29.78906 V 39.628418 c 0,-16.45095 13.3381135,-29.7890625 29.7890625,-29.7890625 z m 271.691892,0 h 134.05078 c 16.45095,0 29.79053,13.3381055 29.79053,29.7890625 V 173.6792 c 0,16.45094 -13.33958,29.78906 -29.79053,29.78906 H 311.32031 c -16.45096,0 -29.78906,-13.33812 -29.78906,-29.78906 V 39.628418 c 0,-16.450957 13.3381,-29.7890625 29.78906,-29.7890625 z M 39.628418,281.53125 H 173.6792 c 16.45094,0 29.78906,13.33808 29.78906,29.78906 v 134.05078 c 0,16.45093 -13.33812,29.79053 -29.78906,29.79053 H 39.628418 c -16.450949,0 -29.7890625,-13.3396 -29.7890625,-29.79053 V 311.32031 c 0,-16.45098 13.3381135,-29.78906 29.7890625,-29.78906 z m 271.691892,0 h 134.05078 c 16.45093,0 29.79053,13.3381 29.79053,29.78906 v 134.05078 c 0,16.45095 -13.3396,29.79053 -29.79053,29.79053 H 311.32031 c -16.45098,0 -29.78906,-13.33958 -29.78906,-29.79053 V 311.32031 c 0,-16.45096 13.33808,-29.78906 29.78906,-29.78906 z" />
  <path
     style="display:inline;fill:#8bd804;fill-opacity:1;stroke:#000000;stroke-width:12.231;stroke-dasharray:none;stroke-opacity:1"
     d="m 116.04539,-507.23582 c -15.4779,0 -28.027103,12.54922 -28.027103,28.02715 v 126.12212 c 0,15.47793 12.549203,28.02712 28.027103,28.02712 h 126.1221 c 15.478,0 28.0272,-12.54919 28.0272,-28.02712 v -126.12212 c 0,-15.47793 -12.5492,-28.02715 -28.0272,-28.02715 z"
     id="path8" />
  <path
     id="path2-2"
     style="display:none;fill:#28a825;fill-opacity:0.490196;stroke:#000000;stroke-width:0;stroke-dasharray:none;stroke-opacity:1"
     inkscape:label="path2"
     d="m 315.21553,35.657679 c -5.05121,0 -9.14662,4.09541 -9.14662,9.146585 v 41.159751 c 0,5.051256 4.09541,9.146665 9.14662,9.146665 h 41.15976 c 5.0512,0 9.14661,-4.095409 9.14661,-9.146665 V 44.804264 c 0,-5.051175 -4.09541,-9.146585 -9.14661,-9.146585 z m 83.42191,0 c -5.0512,0 -9.14661,4.09541 -9.14661,9.146585 v 41.159751 c 0,5.051256 4.09541,9.146665 9.14661,9.146665 h 41.15977 c 5.0512,0 9.14706,-4.095409 9.14706,-9.146665 V 44.804264 c 0,-5.051175 -4.09586,-9.146585 -9.14706,-9.146585 z m -83.42191,83.421931 c -5.05121,0 -9.14662,4.09541 -9.14662,9.14658 v 41.15975 c 0,5.05125 4.09541,9.14707 9.14662,9.14707 h 41.15976 c 5.0512,0 9.14661,-4.09582 9.14661,-9.14707 v -41.15975 c 0,-5.05117 -4.09541,-9.14658 -9.14661,-9.14658 z m 83.42191,0 c -5.05121,0 -9.14661,4.09541 -9.14661,9.14658 v 41.15975 c 0,5.05125 4.0954,9.14707 9.14661,9.14707 h 41.15977 c 5.05119,0 9.14706,-4.09582 9.14706,-9.14707 v -41.15975 c 0,-5.05117 -4.09587,-9.14658 -9.14706,-9.14658 z" />
  <path
     id="path2-2-6"
     style="display:none;fill:#28a825;fill-opacity:0.490196;stroke:#000000;stroke-width:0;stroke-dasharray:none;stroke-opacity:1"
     inkscape:label="path2"
     d="m 43.943909,35.774977 c -5.05121,0 -9.14662,4.09541 -9.14662,9.14658 v 41.15975 c 0,5.05126 4.09541,9.14667 9.14662,9.14667 h 41.15976 c 5.0512,0 9.14661,-4.09541 9.14661,-9.14667 v -41.15975 c 0,-5.05117 -4.09541,-9.14658 -9.14661,-9.14658 z m 83.421911,0 c -5.0512,0 -9.14661,4.09541 -9.14661,9.14658 v 41.15975 c 0,5.05126 4.09541,9.14667 9.14661,9.14667 h 41.15977 c 5.0512,0 9.14706,-4.09541 9.14706,-9.14667 v -41.15975 c 0,-5.05117 -4.09586,-9.14658 -9.14706,-9.14658 z M 43.943909,119.19691 c -5.05121,0 -9.14662,4.09541 -9.14662,9.14658 v 41.15975 c 0,5.05125 4.09541,9.14707 9.14662,9.14707 h 41.15976 c 5.0512,0 9.14661,-4.09582 9.14661,-9.14707 v -41.15975 c 0,-5.05117 -4.09541,-9.14658 -9.14661,-9.14658 z m 83.421911,0 c -5.05121,0 -9.14661,4.09541 -9.14661,9.14658 v 41.15975 c 0,5.05125 4.0954,9.14707 9.14661,9.14707 h 41.15977 c 5.05119,0 9.14706,-4.09582 9.14706,-9.14707 v -41.15975 c 0,-5.05117 -4.09587,-9.14658 -9.14706,-9.14658 z" />
  <g
     id="g20"
     transform="matrix(1.0917755,0,0,1.0917755,-17.676384,-18.28445)"
     style="display:none;stroke-width:0;stroke-dasharray:none">
    <path
       style="display:inline;fill:#8bd804;fill-opacity:1;stroke:#131d00;stroke-width:0;stroke-linecap:square;stroke-miterlimit:4.8;stroke-dasharray:none;stroke-dashoffset:0;stroke-opacity:1;paint-order:normal"
       d="m 317.68123,78.319723 c -8.35254,0 -15.12463,6.772048 -15.12463,15.124619 v 68.060828 c 0,8.35254 6.77209,15.12538 15.12463,15.12538 h 68.06082 c 8.35256,0 15.12464,-6.77284 15.12464,-15.12538 V 93.444342 c 0,-8.352571 -6.77208,-15.124619 -15.12464,-15.124619 z"
       id="path19-7-3-1" />
    <path
       style="display:inline;fill:#8bd804;fill-opacity:1;stroke:#131d00;stroke-width:0;stroke-linecap:square;stroke-miterlimit:4.8;stroke-dasharray:none;stroke-dashoffset:0;stroke-opacity:1;paint-order:normal"
       d="m 92.97025,82.405258 c -8.35254,0 -15.124626,6.772048 -15.124626,15.124619 v 68.060833 c 0,8.35254 6.772086,15.12537 15.124626,15.12537 h 68.06082 c 8.35256,0 15.12465,-6.77283 15.12465,-15.12537 V 97.529877 c 0,-8.352571 -6.77209,-15.124619 -15.12465,-15.124619 z"
       id="path19-7-3"
       transform="translate(-2.1008337,-3.6372932)" />
    <path
       style="display:inline;fill:#8bd804;fill-opacity:1;stroke:#131d00;stroke-width:0;stroke-linecap:square;stroke-miterlimit:4.8;stroke-dasharray:none;stroke-dashoffset:0;stroke-opacity:1;paint-order:normal"
       d="m 95.05624,301.09485 c -8.35254,0 -15.124628,6.77204 -15.124628,15.12461 v 68.06084 c 0,8.35253 6.772088,15.12536 15.124628,15.12536 h 68.06084 c 8.35256,0 15.12464,-6.77283 15.12464,-15.12536 v -68.06084 c 0,-8.35257 -6.77208,-15.12461 -15.12464,-15.12461 z"
       id="path19-7-3-1-5-5" />
  </g>
  <path
     id="path2-2-6-4"
     style="display:none;fill:#28a825;fill-opacity:0.490196;stroke:none;stroke-width:0;stroke-dasharray:none;stroke-opacity:0"
     inkscape:label="path2"
     d="m 43.943909,35.774977 c -5.05121,0 -9.14662,4.09541 -9.14662,9.14658 v 41.15975 c 0,5.05126 4.09541,9.14667 9.14662,9.14667 h 41.15976 c 5.0512,0 9.14661,-4.09541 9.14661,-9.14667 v -41.15975 c 0,-5.05117 -4.09541,-9.14658 -9.14661,-9.14658 z m 83.421911,0 c -5.0512,0 -9.14661,4.09541 -9.14661,9.14658 v 41.15975 c 0,5.05126 4.09541,9.14667 9.14661,9.14667 h 41.15977 c 5.0512,0 9.14706,-4.09541 9.14706,-9.14667 v -41.15975 c 0,-5.05117 -4.09586,-9.14658 -9.14706,-9.14658 z M 43.943909,119.19691 c -5.05121,0 -9.14662,4.09541 -9.14662,9.14658 v 41.15975 c 0,5.05125 4.09541,9.14707 9.14662,9.14707 h 41.15976 c 5.0512,0 9.14661,-4.09582 9.14661,-9.14707 v -41.15975 c 0,-5.05117 -4.09541,-9.14658 -9.14661,-9.14658 z m 83.421911,0 c -5.05121,0 -9.14661,4.09541 -9.14661,9.14658 v 41.15975 c 0,5.05125 4.0954,9.14707 9.14661,9.14707 h 41.15977 c 5.05119,0 9.14706,-4.09582 9.14706,-9.14707 v -41.15975 c 0,-5.05117 -4.09587,-9.14658 -9.14706,-9.14658 z" />
  <path
     id="path2-2-6-1"
     style="display:none;fill:#28a825;fill-opacity:0.489712;stroke:#000000;stroke-width:0;stroke-dasharray:none;stroke-opacity:1"
     inkscape:label="path2"
     d="m 44.141938,306.87756 c -5.05121,0 -9.14662,4.09541 -9.14662,9.14658 v 41.15975 c 0,5.05126 4.09541,9.14667 9.14662,9.14667 h 41.15976 c 5.0512,0 9.14661,-4.09541 9.14661,-9.14667 v -41.15975 c 0,-5.05117 -4.09541,-9.14658 -9.14661,-9.14658 z m 83.421912,0 c -5.0512,0 -9.14661,4.09541 -9.14661,9.14658 v 41.15975 c 0,5.05126 4.09541,9.14667 9.14661,9.14667 h 41.15977 c 5.0512,0 9.14706,-4.09541 9.14706,-9.14667 v -41.15975 c 0,-5.05117 -4.09586,-9.14658 -9.14706,-9.14658 z m -83.421912,83.42193 c -5.05121,0 -9.14662,4.09541 -9.14662,9.14658 v 41.15975 c 0,5.05125 4.09541,9.14707 9.14662,9.14707 h 41.15976 c 5.0512,0 9.14661,-4.09582 9.14661,-9.14707 v -41.15975 c 0,-5.05117 -4.09541,-9.14658 -9.14661,-9.14658 z m 83.421912,0 c -5.05121,0 -9.14661,4.09541 -9.14661,9.14658 v 41.15975 c 0,5.05125 4.0954,9.14707 9.14661,9.14707 h 41.15977 c 5.05119,0 9.14706,-4.09582 9.14706,-9.14707 v -41.15975 c 0,-5.05117 -4.09587,-9.14658 -9.14706,-9.14658 z" />
  <path
     id="path2-2-6-1-13"
     style="display:none;fill:#28a825;fill-opacity:0.489712;stroke:#000000;stroke-width:0;stroke-dasharray:none;stroke-opacity:1"
     inkscape:label="path2"
     d="m 44.141938,306.87756 c -5.05121,0 -9.14662,4.09541 -9.14662,9.14658 v 41.15975 c 0,5.05126 4.09541,9.14667 9.14662,9.14667 h 41.15976 c 5.0512,0 9.14661,-4.09541 9.14661,-9.14667 v -41.15975 c 0,-5.05117 -4.09541,-9.14658 -9.14661,-9.14658 z m 83.421912,0 c -5.0512,0 -9.14661,4.09541 -9.14661,9.14658 v 41.15975 c 0,5.05126 4.09541,9.14667 9.14661,9.14667 h 41.15977 c 5.0512,0 9.14706,-4.09541 9.14706,-9.14667 v -41.15975 c 0,-5.05117 -4.09586,-9.14658 -9.14706,-9.14658 z m -83.421912,83.42193 c -5.05121,0 -9.14662,4.09541 -9.14662,9.14658 v 41.15975 c 0,5.05125 4.09541,9.14707 9.14662,9.14707 h 41.15976 c 5.0512,0 9.14661,-4.09582 9.14661,-9.14707 v -41.15975 c 0,-5.05117 -4.09541,-9.14658 -9.14661,-9.14658 z m 83.421912,0 c -5.05121,0 -9.14661,4.09541 -9.14661,9.14658 v 41.15975 c 0,5.05125 4.0954,9.14707 9.14661,9.14707 h 41.15977 c 5.05119,0 9.14706,-4.09582 9.14706,-9.14707 v -41.15975 c 0,-5.05117 -4.09587,-9.14658 -9.14706,-9.14658 z" />
  <path
     id="path2-2-6-1-1"
     style="display:none;fill:#d02900;fill-opacity:0.489712;stroke:#000000;stroke-width:0;stroke-dasharray:none;stroke-opacity:1"
     inkscape:label="path2"
     d="m 311.45037,307.29707 c -5.05121,0 -9.14662,4.09541 -9.14662,9.14658 v 41.15975 c 0,5.05126 4.09541,9.14667 9.14662,9.14667 h 41.15976 c 5.0512,0 9.14661,-4.09541 9.14661,-9.14667 v -41.15975 c 0,-5.05117 -4.09541,-9.14658 -9.14661,-9.14658 z m 83.42191,0 c -5.0512,0 -9.14661,4.09541 -9.14661,9.14658 v 41.15975 c 0,5.05126 4.09541,9.14667 9.14661,9.14667 h 41.15977 c 5.0512,0 9.14706,-4.09541 9.14706,-9.14667 v -41.15975 c 0,-5.05117 -4.09586,-9.14658 -9.14706,-9.14658 z M 311.45037,390.719 c -5.05121,0 -9.14662,4.09541 -9.14662,9.14658 v 41.15975 c 0,5.05125 4.09541,9.14707 9.14662,9.14707 h 41.15976 c 5.0512,0 9.14661,-4.09582 9.14661,-9.14707 v -41.15975 c 0,-5.05117 -4.09541,-9.14658 -9.14661,-9.14658 z m 83.42191,0 c -5.05121,0 -9.14661,4.09541 -9.14661,9.14658 v 41.15975 c 0,5.05125 4.0954,9.14707 9.14661,9.14707 h 41.15977 c 5.05119,0 9.14706,-4.09582 9.14706,-9.14707 v -41.15975 c 0,-5.05117 -4.09587,-9.14658 -9.14706,-9.14658 z" />
  <rect
     style="display:none;fill:#8bd804;fill-opacity:1;stroke:none;stroke-width:38.9611;stroke-linecap:square;stroke-miterlimit:4.8;stroke-dasharray:none;stroke-dashoffset:0;stroke-opacity:1;paint-order:stroke markers fill"
     id="rect21-8"
     width="360"
     height="361.16882"
     x="62.499985"
     y="61.915573" />
  <path
     id="rect21-0"
     style="display:none;fill:#000000;fill-opacity:1;stroke:none;stroke-width:42.068;stroke-linecap:square;stroke-miterlimit:4.8;stroke-dasharray:none;stroke-dashoffset:0;stroke-opacity:1;paint-order:stroke markers fill"
     d="M 196.20792,13.93197 14.671674,195.46821 v 94.9535 L 195.31652,471.068 h 93.47409 L 470.3283,289.53031 v -94.9535 L 289.68201,13.93197 Z" />
  <g
     id="g21"
     transform="matrix(0.71891655,0,0,0.71891655,49.807246,14.097753)"
     style="display:none;stroke-width:0;stroke-dasharray:none">
    <rect
       style="display:none;fill:#000000;fill-opacity:1;stroke:none;stroke-width:27.9601;stroke-linecap:square;stroke-miterlimit:4.8;stroke-dasharray:none;stroke-dashoffset:0;stroke-opacity:1;paint-order:stroke markers fill"
       id="rect21-0-0"
       width="258.35159"
       height="259.19037"
       x="-439.04684"
       y="-447.29858"
       transform="scale(-1)" />
    <path
       id="polygon1-7"
       style="display:none;opacity:1;mix-blend-mode:normal;fill:#8bd804;fill-opacity:1;stroke:#000000;stroke-width:117.569;stroke-miterlimit:8.9;stroke-dasharray:none;stroke-opacity:1;paint-order:stroke fill markers"
       d="m 242.99809,100.94123 c -83.41948,-0.001 -145.980663,58.31097 -145.980663,137.09352 0,79.16452 62.561183,138.63921 145.978393,138.63921 21.53041,0 36.73925,-3.35847 52.68178,-8.59885 L 254.59878,328.112 c -2.66356,0.55429 -4.04435,0.35821 -10.71136,0.35821 -47.70664,0 -88.28022,-39.22932 -88.28022,-90.09572 0,-50.86644 40.12769,-89.22888 88.28022,-89.22888 48.15267,0 86.4991,38.36472 86.4991,89.22888 0,8.27425 -1.03126,16.23077 -2.93559,23.77335 l 44.156,44.15149 c 11.38368,-19.95053 17.75339,-43.14079 17.75339,-68.26309 0,-78.39625 -62.56118,-137.09593 -146.36223,-137.09593 z m -25.6894,119.87988 v 41.43063 l 36.58139,36.12875 18.29093,17.1133 69.80167,69.94367 h 44.51518 V 345.27093 L 297.9002,257.45436 295.67986,255.116 260.94135,220.82111 h -42.55804 z" />
  </g>
  <rect
     style="display:inline;fill:#000000;fill-opacity:1;stroke:none;stroke-width:7.12682;stroke-linecap:square;stroke-miterlimit:4.8;stroke-dasharray:none;stroke-dashoffset:0;stroke-opacity:1;paint-order:stroke markers fill"
     id="rect21-84"
     width="206.77304"
     height="207.4444"
     x="170.07982"
     y="-413.40588" />
  <path
     style="display:inline;opacity:1;fill:#8bd804;fill-opacity:1;stroke:#8bd804;stroke-width:46.9332;stroke-linecap:square;stroke-miterlimit:8.9;stroke-dasharray:none;stroke-dashoffset:0;stroke-opacity:1;paint-order:stroke markers fill"
     d="M -32.787913,-416.14763 H 391.00089"
     id="path22" />
  <path
     style="display:inline;fill:#8bd804;fill-opacity:1;stroke:#8bd804;stroke-width:46.9332;stroke-linecap:square;stroke-miterlimit:8.9;stroke-dasharray:none;stroke-dashoffset:0;stroke-opacity:1;paint-order:stroke markers fill"
     d="m 179.10649,-628.04204 v 423.78882"
     id="path22-3" />
  <g
     id="path23"
     style="display:inline"
     transform="translate(-63.393513,-658.64761)">
    <path
       style="color:#000000;fill:#8bd804;stroke-linecap:square;stroke-miterlimit:8.9;-inkscape-stroke:none;paint-order:stroke markers fill"
       d="M 242.5,89 C 158.25744,89 89,158.25744 89,242.5 88.999992,326.74256 158.25744,396 242.5,396 326.74257,396.00001 396.00001,326.74257 396,242.5 396,158.25744 326.74256,88.999992 242.5,89 Z m 0,90 c 35.603,0 63.5,27.897 63.5,63.5 0,35.603 -27.897,63.5 -63.5,63.5 -35.603,0 -63.5,-27.897 -63.5,-63.5 0,-35.60299 27.89701,-63.5 63.5,-63.5 z"
       id="path57" />
    <path
       style="color:#000000;fill:#000000;fill-opacity:1;stroke:#000000;stroke-linecap:square;stroke-miterlimit:8.9;stroke-opacity:1;-inkscape-stroke:none;paint-order:fill markers stroke"
       d="M 350.99988,242.49998 A 108.49989,108.49989 0 0 1 242.49998,350.99988 108.49989,108.49989 0 0 1 134.00009,242.49998 108.49989,108.49989 0 0 1 242.49998,134.00009 108.49989,108.49989 0 0 1 350.99988,242.49998 Z"
       id="path58" />
  </g>
  <rect
     style="display:inline;opacity:1;fill:none;fill-opacity:1;stroke:#8bd804;stroke-width:43.6431;stroke-linecap:square;stroke-miterlimit:4.8;stroke-dasharray:none;stroke-dashoffset:0;stroke-opacity:1;paint-order:stroke markers fill"
     id="rect21"
     width="441.5036"
     height="441.35175"
     x="-41.645279"
     y="-636.82349" />
  <path
     style="display:inline;opacity:1;fill:#505050;fill-opacity:1;stroke:#8bd804;stroke-width:25;stroke-linecap:square;stroke-miterlimit:8.9;stroke-dasharray:none;stroke-dashoffset:0;stroke-opacity:1;paint-order:markers fill stroke"
     d="m 67.629187,-352.30953 v 149.88634"
     id="path59" />
  <circle
     style="display:inline;opacity:1;fill:#000000;fill-opacity:1;stroke:#000000;stroke-width:0;stroke-linecap:square;stroke-miterlimit:8.9;stroke-dasharray:none;stroke-dashoffset:0;stroke-opacity:1;paint-order:fill markers stroke"
     id="path60"
     cx="179.10643"
     cy="-416.14764"
     r="111" />
  <path
     style="display:inline;mix-blend-mode:normal;fill:#8bd804;fill-opacity:1;stroke:none;stroke-width:42.0158;stroke-dasharray:none;stroke-opacity:1;paint-order:markers fill stroke"
     d="m 154.67919,-437.2597 v 32.86038 l 29.0142,28.65523 14.5074,13.57329 55.3626,55.47527 h 35.3069 v -31.85776 l -70.2706,-69.65103 -1.761,-1.85466 -27.5526,-27.20072 h -33.7546 z"
     id="path25" />
  <path
     style="display:none;mix-blend-mode:normal;fill:none;fill-opacity:1;stroke:none;stroke-width:0;stroke-dasharray:none;stroke-opacity:1;paint-order:stroke fill markers"
     d="m 242.31991,108.23796 c -78.73641,-9.5e-4 -137.78547,55.03745 -137.78547,129.39723 0,74.7203 59.04906,130.85615 137.78333,130.85615 20.32171,0 34.67674,-3.16993 49.72428,-8.11611 l -38.7727,-37.71963 c -2.51403,0.52318 -3.8173,0.3381 -10.11004,0.3381 -45.02844,0 -83.32426,-37.02703 -83.32426,-85.03783 0,-48.01086 37.87496,-84.21967 83.32426,-84.21967 45.44943,0 81.64314,36.21096 81.64314,84.21967 0,7.80973 -0.97337,15.31959 -2.7708,22.43873 l 41.67713,41.67287 c 10.74462,-18.83053 16.75674,-40.71891 16.75674,-64.43087 0,-73.99517 -59.04906,-129.39951 -138.14561,-129.39951 z"
     id="polygon1-7-1" />
  <path
     style="display:none;mix-blend-mode:normal;fill:#8bd804;fill-opacity:1;stroke:#000000;stroke-width:0;stroke-dasharray:none;stroke-opacity:1;paint-order:markers fill stroke"
     d="m 218.07268,221.38791 v 39.10476 l 34.52775,34.10051 17.2641,16.15259 65.88308,66.0171 h 42.01615 v -37.91162 l -83.62389,-82.88664 -2.0957,-2.2071 -32.78832,-32.3696 h -40.16888 z"
     id="path26" />
  <rect
     style="display:inline;fill:#000000;fill-opacity:1;stroke:none;stroke-width:43.643;stroke-linecap:square;stroke-miterlimit:4.8;stroke-dasharray:none;stroke-dashoffset:0;stroke-opacity:1;paint-order:stroke fill markers"
     id="rect21-4-6"
     width="441.5036"
     height="441.35175"
     x="-1422.3219"
     y="730.42389" />
  <path
     style="display:inline;fill:#505050;fill-opacity:1;stroke:#8bd804;stroke-width:23.8459;stroke-linecap:square;stroke-miterlimit:8.9;stroke-dasharray:none;stroke-dashoffset:0;stroke-opacity:1;paint-order:markers fill stroke"
     d="M 113.17039,-304.81503 H -22.957413"
     id="path59-5" />
  <path
     style="display:inline;fill:#505050;fill-opacity:1;stroke:#8bd804;stroke-width:18.4333;stroke-linecap:square;stroke-miterlimit:8.9;stroke-dasharray:none;stroke-dashoffset:0;stroke-opacity:1;paint-order:markers fill stroke"
     d="m 31.871187,-402.2101 h -81.3439"
     id="path59-5-9-6" />
  <rect
     style="display:inline;opacity:0.15;fill:#ffffff;fill-opacity:1;fill-rule:nonzero;stroke:none;stroke-width:1.76768;stroke-dashoffset:302.363"
     id="rect1"
     width="247.41743"
     height="484.99454"
     x="-421.6709"
     y="173.65039"
     transform="scale(-1)" />
  <rect
     style="display:none;opacity:0.2;fill:#ffffff;fill-opacity:1;fill-rule:nonzero;stroke:none;stroke-width:1.76768;stroke-dashoffset:302.363"
     id="rect1-1"
     width="247.41743"
     height="484.99454"
     x="-1160.2711"
     y="-565.1615"
     transform="scale(-1)" />
  <path
     id="path33"
     style="display:none;opacity:0.2;fill:#ffffff;fill-opacity:1;stroke:none;stroke-width:93.8406;stroke-dashoffset:302.363"
     inkscape:transform-center-x="-23.180928"
     inkscape:transform-center-y="-20.255384"
     d="M 0.00445449,484.99341 -0.00841154,0.00484293 485.00165,485.00946 Z"
     sodipodi:nodetypes="cccc" />
  <g
     id="g33"
     transform="translate(25.632468,-24.904546)">
    <circle
       style="display:none;fill:#000000;fill-opacity:1;stroke:#000000;stroke-width:0;stroke-linecap:square;stroke-miterlimit:8.9;stroke-dasharray:none;stroke-dashoffset:0;stroke-opacity:1;paint-order:fill markers stroke"
       id="path60-4"
       cx="1386.3234"
       cy="1758.2474"
       r="111" />
    <path
       style="display:none;fill:#505050;fill-opacity:1;stroke:#8bd804;stroke-width:20;stroke-linecap:square;stroke-miterlimit:8.9;stroke-dasharray:none;stroke-dashoffset:0;stroke-opacity:1;paint-order:markers fill stroke"
       d="m 1335.0099,1875.3154 h -149.623"
       id="path59-5-0" />
    <rect
       style="display:none;opacity:0.15;fill:#ffffff;fill-opacity:1;fill-rule:nonzero;stroke:none;stroke-width:1.76768;stroke-dashoffset:302.363"
       id="rect1-6"
       width="247.41743"
       height="484.99454"
       x="-1628.8878"
       y="-2000.7446"
       transform="scale(-1)" />
  </g>
  <path
     style="display:inline;fill:#8bd804;fill-opacity:1;stroke:#8bd804;stroke-width:30;stroke-linecap:square;stroke-miterlimit:8.9;stroke-dasharray:none;stroke-dashoffset:0;stroke-opacity:1;paint-order:stroke markers fill"
     d="m -1407.8984,947.27989 h 423.78881"
     id="path22-4" />
  <path
     style="display:inline;fill:#8bd804;fill-opacity:1;stroke:#8bd804;stroke-width:30;stroke-linecap:square;stroke-miterlimit:8.9;stroke-dasharray:none;stroke-dashoffset:0;stroke-opacity:1;paint-order:stroke markers fill"
     d="M -1193.8827,743.89285 V 1167.6817"
     id="path22-3-7" />
  <g
     id="path23-3"
     style="display:inline"
     transform="matrix(0.78785617,0,0,0.78785617,-1381.6471,755.37311)">
    <path
       style="color:#000000;fill:#8bd804;stroke-linecap:square;stroke-miterlimit:8.9;-inkscape-stroke:none;paint-order:stroke markers fill"
       d="M 242.5,89 C 158.25744,89 89,158.25744 89,242.5 88.999992,326.74256 158.25744,396 242.5,396 326.74257,396.00001 396.00001,326.74257 396,242.5 396,158.25744 326.74256,88.999992 242.5,89 Z m 0,90 c 35.603,0 63.5,27.897 63.5,63.5 0,35.603 -27.897,63.5 -63.5,63.5 -35.603,0 -63.5,-27.897 -63.5,-63.5 0,-35.60299 27.89701,-63.5 63.5,-63.5 z"
       id="path57-4" />
    <path
       style="color:#000000;fill:#000000;fill-opacity:1;stroke:#000000;stroke-linecap:square;stroke-miterlimit:8.9;stroke-opacity:1;-inkscape-stroke:none;paint-order:fill markers stroke"
       d="M 350.99988,242.49998 A 108.49989,108.49989 0 0 1 242.49998,350.99988 108.49989,108.49989 0 0 1 134.00009,242.49998 108.49989,108.49989 0 0 1 242.49998,134.00009 108.49989,108.49989 0 0 1 350.99988,242.49998 Z"
       id="path58-5" />
  </g>
  <rect
     style="display:inline;fill:none;fill-opacity:1;stroke:#8bd804;stroke-width:43.643;stroke-linecap:square;stroke-miterlimit:4.8;stroke-dasharray:none;stroke-dashoffset:0;stroke-opacity:1;paint-order:stroke fill markers"
     id="rect21-4"
     width="441.5036"
     height="441.35175"
     x="-1414.6344"
     y="735.11139" />
  <rect
     style="display:inline;fill:none;fill-opacity:1;stroke:#8bd804;stroke-width:43.643;stroke-linecap:square;stroke-miterlimit:4.8;stroke-dasharray:none;stroke-dashoffset:0;stroke-opacity:1;paint-order:stroke fill markers"
     id="rect21-4-1"
     width="441.5036"
     height="441.35175"
     x="-41.645279"
     y="-636.82349" />
  <path
     style="display:inline;fill:#505050;fill-opacity:1;stroke:#8bd804;stroke-width:23.1323;stroke-linecap:square;stroke-miterlimit:8.9;stroke-dasharray:none;stroke-dashoffset:0;stroke-opacity:1;paint-order:markers fill stroke"
     d="m -1078.9226,965.2845 v 200.5128"
     id="path59-55" />
  <circle
     style="display:inline;fill:#000000;fill-opacity:1;stroke:#000000;stroke-width:0;stroke-linecap:square;stroke-miterlimit:8.9;stroke-dasharray:none;stroke-dashoffset:0;stroke-opacity:1;paint-order:fill markers stroke"
     id="path60-6"
     cx="-1190.5919"
     cy="946.42816"
     r="87.452034" />
  <path
     style="display:inline;mix-blend-mode:normal;fill:#8bd804;fill-opacity:1;stroke:none;stroke-width:33.1025;stroke-dasharray:none;stroke-opacity:1;paint-order:markers fill stroke"
     d="m -1209.8371,929.79493 v 25.88926 l 22.859,22.57621 11.4296,10.69378 43.6178,43.70652 h 27.8168 v -25.0993 l -55.3631,-54.87499 -1.3874,-1.46121 -21.7075,-21.43027 h -26.5938 z"
     id="path25-8" />
  <path
     style="display:inline;fill:#505050;fill-opacity:1;stroke:#8bd804;stroke-width:22.552;stroke-linecap:square;stroke-miterlimit:8.9;stroke-dasharray:none;stroke-dashoffset:0;stroke-opacity:1;paint-order:markers fill stroke"
     d="M -985.83059,1053.9718 H -1176.0734"
     id="path59-5-1"
     sodipodi:nodetypes="cc" />
  <path
     style="display:inline;fill:#505050;fill-opacity:1;stroke:#8bd804;stroke-width:22.7402;stroke-linecap:square;stroke-miterlimit:8.9;stroke-dasharray:none;stroke-dashoffset:0;stroke-opacity:1;paint-order:markers fill stroke"
     d="m -1224.7973,1166.1782 h -193.4305"
     id="path59-5-1-3" />
  <rect
     style="display:none;opacity:0.15;fill:#ffffff;fill-opacity:1;fill-rule:nonzero;stroke:none;stroke-width:1.76768;stroke-dashoffset:302.363"
     id="rect1-7"
     width="247.41743"
     height="484.99454"
     x="-1416.0752"
     y="-824.93213"
     transform="scale(-1)" />
  <path
     id="path1"
     style="opacity:1;fill:#8bd804;stroke-width:9.38993;stroke-dashoffset:302.363"
     inkscape:transform-center-x="1.9947837"
     inkscape:transform-center-y="1.9698047"
     d="m -1078.0693,988.93834 -0.8789,67.56466 -51.7242,-2.3671 z"
     sodipodi:nodetypes="cccc" />
  <rect
     style="display:none;fill:#000000;fill-opacity:1;stroke:none;stroke-width:43.643;stroke-linecap:square;stroke-miterlimit:4.8;stroke-dasharray:none;stroke-dashoffset:0;stroke-opacity:1;paint-order:stroke fill markers"
     id="rect21-4-6-3"
     width="441.5036"
     height="441.35175"
     x="1311.634"
     y="-1612.616" />
  <g
     id="g15"
     transform="matrix(0.99969759,0,0,1.0000108,-1297.1076,1629.7675)"
     style="display:inline">
    <rect
       style="display:inline;opacity:1;fill:#000000;fill-opacity:1;stroke:none;stroke-width:20;stroke-dasharray:none;stroke-dashoffset:302.363;stroke-opacity:1;paint-order:stroke fill markers"
       id="rect7-0"
       width="485.14658"
       height="484.99472"
       x="1297.5"
       y="-1629.75" />
    <path
       style="display:inline;fill:#8bd804;fill-opacity:1;stroke:#8bd804;stroke-width:37;stroke-linecap:square;stroke-miterlimit:8.9;stroke-dasharray:none;stroke-dashoffset:0;stroke-opacity:1;paint-order:stroke markers fill"
       d="m 1328.1789,-1387.2526 h 423.7888"
       id="path22-4-4" />
    <path
       style="display:inline;fill:#8bd804;fill-opacity:1;stroke:#8bd804;stroke-width:37;stroke-linecap:square;stroke-miterlimit:8.9;stroke-dasharray:none;stroke-dashoffset:0;stroke-opacity:1;paint-order:stroke markers fill"
       d="m 1540.0733,-1599.147 v 423.7888"
       id="path22-3-7-6" />
    <path
       style="color:#000000;display:inline;fill:#8bd804;stroke-linecap:square;stroke-miterlimit:8.9;-inkscape-stroke:none;paint-order:stroke markers fill"
       d="M 242.5,89 C 158.25744,89 89,158.25744 89,242.5 88.999992,326.74256 158.25744,396 242.5,396 326.74257,396.00001 396.00001,326.74257 396,242.5 396,158.25744 326.74256,88.999992 242.5,89 Z m 0,90 c 35.603,0 63.5,27.897 63.5,63.5 0,35.603 -27.897,63.5 -63.5,63.5 -35.603,0 -63.5,-27.897 -63.5,-63.5 0,-35.60299 27.89701,-63.5 63.5,-63.5 z"
       id="path57-4-7"
       transform="matrix(0.78785618,0,0,0.78785618,1349.0182,-1578.3077)" />
    <path
       style="color:#000000;display:inline;fill:#000000;fill-opacity:1;stroke:#000000;stroke-linecap:square;stroke-miterlimit:8.9;stroke-opacity:1;-inkscape-stroke:none;paint-order:fill markers stroke"
       d="M 350.99988,242.49998 A 108.49989,108.49989 0 0 1 242.49998,350.99988 108.49989,108.49989 0 0 1 134.00009,242.49998 108.49989,108.49989 0 0 1 242.49998,134.00009 108.49989,108.49989 0 0 1 350.99988,242.49998 Z"
       id="path58-5-6"
       transform="matrix(0.78785618,0,0,0.78785618,1349.0182,-1578.3077)" />
    <rect
       style="display:inline;fill:none;fill-opacity:1;stroke:#8bd804;stroke-width:43.643;stroke-linecap:square;stroke-miterlimit:4.8;stroke-dasharray:none;stroke-dashoffset:0;stroke-opacity:1;paint-order:stroke fill markers"
       id="rect21-4-2"
       width="441.5036"
       height="441.35175"
       x="1319.3215"
       y="-1607.9285" />
    <path
       style="display:inline;fill:#8bd804;fill-opacity:1;stroke:#8bd804;stroke-width:23.1323;stroke-linecap:square;stroke-miterlimit:8.9;stroke-dasharray:none;stroke-dashoffset:0;stroke-opacity:1;paint-order:markers fill stroke"
       d="m 1648.4412,-1388.337 v 200.5128"
       id="path59-55-6" />
    <path
       style="display:inline;mix-blend-mode:normal;fill:#8bd804;fill-opacity:1;stroke:#8bd804;stroke-width:15;stroke-dasharray:none;stroke-opacity:1;paint-order:markers fill stroke"
       d="m 1534.3898,-1392.9594 v 24.6088 l 21.5162,21.4595 10.7582,10.1649 41.0558,41.5447 h 26.1828 v -23.8579 l -52.1111,-52.1607 -1.3059,-1.389 -20.4324,-20.3703 h -25.0317 z"
       id="path25-8-6" />
    <path
       style="display:inline;fill:#8bd804;fill-opacity:1;stroke:#8bd804;stroke-width:22.552;stroke-linecap:square;stroke-miterlimit:8.9;stroke-dasharray:none;stroke-dashoffset:0;stroke-opacity:1;paint-order:markers fill stroke"
       d="M 1748.1254,-1278.5638 H 1557.8826"
       id="path59-5-1-5"
       sodipodi:nodetypes="cc" />
    <rect
       style="display:inline;opacity:0.2;fill:url(#linearGradient21);stroke:none;stroke-width:20;stroke-dasharray:none;stroke-dashoffset:302.363;stroke-opacity:1;paint-order:stroke fill markers"
       id="rect7"
       width="485.14658"
       height="484.99472"
       x="1297.5"
       y="-1629.75" />
    <rect
       style="display:inline;opacity:0.15;fill:#ffffff;fill-opacity:1;fill-rule:nonzero;stroke:none;stroke-width:1.6822;stroke-dashoffset:302.363"
       id="rect1-11"
       width="224.07329"
       height="484.99203"
       x="-1782.6466"
       y="1144.7579"
       transform="scale(-1)" />
  </g>
</svg>
