<svg viewBox="0 0 484.99997 484.99997" version="1.1" xmlns="http://www.w3.org/2000/svg">
        <g transform="matrix(0.99969759,0,0,1.0000108,-1297.1076,1629.7675)">
          <rect style="fill:#000000;" width="485.14658" height="484.99472" x="1297.5" y="-1629.75"/>
          <path style="fill:#7ec44a;stroke:#7ec44a;stroke-width:37;stroke-linecap:square;stroke-miterlimit:8.9;" d="m 1328.1789,-1387.2526 h 423.7888"/>
          <path style="fill:#7ec44a;stroke:#7ec44a;stroke-width:37;stroke-linecap:square;stroke-miterlimit:8.9;" d="m 1540.0733,-1599.147 v 423.7888"/>
          <path style="fill:#7ec44a;" d="M 242.5,89 C 158.25744,89 89,158.25744 89,242.5 88.999992,326.74256 158.25744,396 242.5,396 326.74257,396.00001 396.00001,326.74257 396,242.5 396,158.25744 326.74256,88.999992 242.5,89 Z m 0,90 c 35.603,0 63.5,27.897 63.5,63.5 0,35.603 -27.897,63.5 -63.5,63.5 -35.603,0 -63.5,-27.897 -63.5,-63.5 0,-35.60299 27.89701,-63.5 63.5,-63.5 z" transform="matrix(0.78785618,0,0,0.78785618,1349.0182,-1578.3077)"/>
          <path style="fill:#000000;stroke:#000000;stroke-linecap:square;stroke-miterlimit:8.9;" d="M 350.99988,242.49998 A 108.49989,108.49989 0 0 1 242.49998,350.99988 108.49989,108.49989 0 0 1 134.00009,242.49998 108.49989,108.49989 0 0 1 242.49998,134.00009 108.49989,108.49989 0 0 1 350.99988,242.49998 Z" transform="matrix(0.78785618,0,0,0.78785618,1349.0182,-1578.3077)"/>
          <rect style="fill:none;stroke:#7ec44a;stroke-width:43.643;stroke-linecap:square;stroke-miterlimit:4.8;" width="441.5036" height="441.35175" x="1319.3215" y="-1607.9285"/>
          <path style="fill:#7ec44a;stroke:#7ec44a;stroke-width:23.1323;stroke-linecap:square;stroke-miterlimit:8.9;" d="m 1648.4412,-1388.337 v 200.5128"/>
          <path style="fill:#7ec44a;" d="m 1521.5734,-1405.7574 4.595,34.1156 29.5312,-29.522 z m 4.5961,34.1168 96.5917,96.5614 29.5312,-29.522 -96.5917,-96.5614 z"/>
          <path style="fill:#7ec44a;stroke:#7ec44a;stroke-width:22.552;stroke-linecap:square;stroke-miterlimit:8.9;" d="M 1748.1254,-1278.5638 H 1557.8826"/>
        </g>
      </svg>